%TF.GenerationSoftware,KiCad,Pcbnew,8.99.0-3334-g98ae574c78*%
%TF.CreationDate,2024-12-20T16:25:26-06:00*%
%TF.ProjectId,CyberStation,43796265-7253-4746-9174-696f6e2e6b69,rev?*%
%TF.SameCoordinates,Original*%
%TF.FileFunction,Drillmap*%
%TF.FilePolarity,Positive*%
%FSLAX45Y45*%
G04 Gerber Fmt 4.5, Leading zero omitted, Abs format (unit mm)*
G04 Created by KiCad (PCBNEW 8.99.0-3334-g98ae574c78) date 2024-12-20 16:25:26*
%MOMM*%
%LPD*%
G01*
G04 APERTURE LIST*
%ADD10C,0.050000*%
%ADD11C,0.200000*%
%ADD12C,0.100000*%
%ADD13C,0.120000*%
G04 APERTURE END LIST*
D10*
X10980000Y-6660000D02*
X20100000Y-6660000D01*
X10780000Y-10360000D02*
X10780000Y-6860000D01*
X20100000Y-10560000D02*
X10980000Y-10560000D01*
X20100000Y-6660000D02*
G75*
G02*
X20300000Y-6860000I0J-200000D01*
G01*
X10980000Y-10560000D02*
G75*
G02*
X10780000Y-10360000I0J200000D01*
G01*
X20300000Y-10360000D02*
G75*
G02*
X20100000Y-10560000I-200000J0D01*
G01*
X10780000Y-6860000D02*
G75*
G02*
X10980000Y-6660000I200000J0D01*
G01*
X20300000Y-6860000D02*
X20300000Y-10360000D01*
D11*
D12*
X16145000Y-8745000D02*
X16175000Y-8775000D01*
X16175000Y-8745000D02*
X16145000Y-8775000D01*
X16225000Y-6985000D02*
X16255000Y-7015000D01*
X16255000Y-6985000D02*
X16225000Y-7015000D01*
X11090000Y-9960000D02*
G75*
G02*
X11010000Y-9960000I-40000J0D01*
G01*
X11010000Y-9960000D02*
G75*
G02*
X11090000Y-9960000I40000J0D01*
G01*
X12360000Y-9960000D02*
G75*
G02*
X12280000Y-9960000I-40000J0D01*
G01*
X12280000Y-9960000D02*
G75*
G02*
X12360000Y-9960000I40000J0D01*
G01*
X12760000Y-9960000D02*
G75*
G02*
X12680000Y-9960000I-40000J0D01*
G01*
X12680000Y-9960000D02*
G75*
G02*
X12760000Y-9960000I40000J0D01*
G01*
X14030000Y-9960000D02*
G75*
G02*
X13950000Y-9960000I-40000J0D01*
G01*
X13950000Y-9960000D02*
G75*
G02*
X14030000Y-9960000I40000J0D01*
G01*
X15120000Y-10100000D02*
G75*
G02*
X15040000Y-10100000I-40000J0D01*
G01*
X15040000Y-10100000D02*
G75*
G02*
X15120000Y-10100000I40000J0D01*
G01*
X15180000Y-7200000D02*
G75*
G02*
X15100000Y-7200000I-40000J0D01*
G01*
X15100000Y-7200000D02*
G75*
G02*
X15180000Y-7200000I40000J0D01*
G01*
X15434000Y-7200000D02*
G75*
G02*
X15354000Y-7200000I-40000J0D01*
G01*
X15354000Y-7200000D02*
G75*
G02*
X15434000Y-7200000I40000J0D01*
G01*
X15688000Y-7200000D02*
G75*
G02*
X15608000Y-7200000I-40000J0D01*
G01*
X15608000Y-7200000D02*
G75*
G02*
X15688000Y-7200000I40000J0D01*
G01*
X15942000Y-7200000D02*
G75*
G02*
X15862000Y-7200000I-40000J0D01*
G01*
X15862000Y-7200000D02*
G75*
G02*
X15942000Y-7200000I40000J0D01*
G01*
X16390000Y-10100000D02*
G75*
G02*
X16310000Y-10100000I-40000J0D01*
G01*
X16310000Y-10100000D02*
G75*
G02*
X16390000Y-10100000I40000J0D01*
G01*
X11610000Y-7129000D02*
X11610000Y-7219000D01*
X11565000Y-7174000D02*
X11655000Y-7174000D01*
X11610000Y-9415000D02*
X11610000Y-9505000D01*
X11565000Y-9460000D02*
X11655000Y-9460000D01*
X11864000Y-7129000D02*
X11864000Y-7219000D01*
X11819000Y-7174000D02*
X11909000Y-7174000D01*
X11864000Y-9415000D02*
X11864000Y-9505000D01*
X11819000Y-9460000D02*
X11909000Y-9460000D01*
X12118000Y-7129000D02*
X12118000Y-7219000D01*
X12073000Y-7174000D02*
X12163000Y-7174000D01*
X12118000Y-9415000D02*
X12118000Y-9505000D01*
X12073000Y-9460000D02*
X12163000Y-9460000D01*
X12372000Y-7129000D02*
X12372000Y-7219000D01*
X12327000Y-7174000D02*
X12417000Y-7174000D01*
X12372000Y-9415000D02*
X12372000Y-9505000D01*
X12327000Y-9460000D02*
X12417000Y-9460000D01*
X12626000Y-7129000D02*
X12626000Y-7219000D01*
X12581000Y-7174000D02*
X12671000Y-7174000D01*
X12626000Y-9415000D02*
X12626000Y-9505000D01*
X12581000Y-9460000D02*
X12671000Y-9460000D01*
X12880000Y-7129000D02*
X12880000Y-7219000D01*
X12835000Y-7174000D02*
X12925000Y-7174000D01*
X12880000Y-9415000D02*
X12880000Y-9505000D01*
X12835000Y-9460000D02*
X12925000Y-9460000D01*
X13134000Y-7129000D02*
X13134000Y-7219000D01*
X13089000Y-7174000D02*
X13179000Y-7174000D01*
X13134000Y-9415000D02*
X13134000Y-9505000D01*
X13089000Y-9460000D02*
X13179000Y-9460000D01*
X13388000Y-7129000D02*
X13388000Y-7219000D01*
X13343000Y-7174000D02*
X13433000Y-7174000D01*
X13388000Y-9415000D02*
X13388000Y-9505000D01*
X13343000Y-9460000D02*
X13433000Y-9460000D01*
X11280356Y-7750356D02*
X11280356Y-7679644D01*
X11209644Y-7679644D01*
X11209644Y-7750356D01*
X11280356Y-7750356D01*
X11280356Y-8400356D02*
X11280356Y-8329644D01*
X11209644Y-8329644D01*
X11209644Y-8400356D01*
X11280356Y-8400356D01*
X11730356Y-7750356D02*
X11730356Y-7679644D01*
X11659644Y-7679644D01*
X11659644Y-7750356D01*
X11730356Y-7750356D01*
X11730356Y-8400356D02*
X11730356Y-8329644D01*
X11659644Y-8329644D01*
X11659644Y-8400356D01*
X11730356Y-8400356D01*
X12050356Y-7755356D02*
X12050356Y-7684644D01*
X11979644Y-7684644D01*
X11979644Y-7755356D01*
X12050356Y-7755356D01*
X12050356Y-8405356D02*
X12050356Y-8334644D01*
X11979644Y-8334644D01*
X11979644Y-8405356D01*
X12050356Y-8405356D01*
X12500356Y-7755356D02*
X12500356Y-7684644D01*
X12429644Y-7684644D01*
X12429644Y-7755356D01*
X12500356Y-7755356D01*
X12500356Y-8405356D02*
X12500356Y-8334644D01*
X12429644Y-8334644D01*
X12429644Y-8405356D01*
X12500356Y-8405356D01*
X12830356Y-7750356D02*
X12830356Y-7679644D01*
X12759644Y-7679644D01*
X12759644Y-7750356D01*
X12830356Y-7750356D01*
X12830356Y-8400356D02*
X12830356Y-8329644D01*
X12759644Y-8329644D01*
X12759644Y-8400356D01*
X12830356Y-8400356D01*
X13280356Y-7750356D02*
X13280356Y-7679644D01*
X13209644Y-7679644D01*
X13209644Y-7750356D01*
X13280356Y-7750356D01*
X13280356Y-8400356D02*
X13280356Y-8329644D01*
X13209644Y-8329644D01*
X13209644Y-8400356D01*
X13280356Y-8400356D01*
X14553856Y-7798856D02*
X14553856Y-7728144D01*
X14483144Y-7728144D01*
X14483144Y-7798856D01*
X14553856Y-7798856D01*
X14553856Y-8052856D02*
X14553856Y-7982144D01*
X14483144Y-7982144D01*
X14483144Y-8052856D01*
X14553856Y-8052856D01*
X14553856Y-8306856D02*
X14553856Y-8236144D01*
X14483144Y-8236144D01*
X14483144Y-8306856D01*
X14553856Y-8306856D01*
X14553856Y-8560856D02*
X14553856Y-8490144D01*
X14483144Y-8490144D01*
X14483144Y-8560856D01*
X14553856Y-8560856D01*
X14553856Y-8814856D02*
X14553856Y-8744144D01*
X14483144Y-8744144D01*
X14483144Y-8814856D01*
X14553856Y-8814856D01*
X14553856Y-9068856D02*
X14553856Y-8998144D01*
X14483144Y-8998144D01*
X14483144Y-9068856D01*
X14553856Y-9068856D01*
X14553856Y-9322856D02*
X14553856Y-9252144D01*
X14483144Y-9252144D01*
X14483144Y-9322856D01*
X14553856Y-9322856D01*
X14553856Y-9576856D02*
X14553856Y-9506144D01*
X14483144Y-9506144D01*
X14483144Y-9576856D01*
X14553856Y-9576856D01*
X19853856Y-8306856D02*
X19853856Y-8236144D01*
X19783144Y-8236144D01*
X19783144Y-8306856D01*
X19853856Y-8306856D01*
X19853856Y-8560856D02*
X19853856Y-8490144D01*
X19783144Y-8490144D01*
X19783144Y-8560856D01*
X19853856Y-8560856D01*
X19853856Y-8814856D02*
X19853856Y-8744144D01*
X19783144Y-8744144D01*
X19783144Y-8814856D01*
X19853856Y-8814856D01*
X19853856Y-9068856D02*
X19853856Y-8998144D01*
X19783144Y-8998144D01*
X19783144Y-9068856D01*
X19853856Y-9068856D01*
D13*
X14980000Y-7704000D02*
X15040000Y-7644000D01*
X14980000Y-7584000D01*
X14920000Y-7644000D01*
X14980000Y-7704000D01*
X14980000Y-9736000D02*
X15040000Y-9676000D01*
X14980000Y-9616000D01*
X14920000Y-9676000D01*
X14980000Y-9736000D01*
X15440000Y-7704000D02*
X15500000Y-7644000D01*
X15440000Y-7584000D01*
X15380000Y-7644000D01*
X15440000Y-7704000D01*
X15440000Y-9736000D02*
X15500000Y-9676000D01*
X15440000Y-9616000D01*
X15380000Y-9676000D01*
X15440000Y-9736000D01*
X15900000Y-7696500D02*
X15960000Y-7636500D01*
X15900000Y-7576500D01*
X15840000Y-7636500D01*
X15900000Y-7696500D01*
X15900000Y-9728500D02*
X15960000Y-9668500D01*
X15900000Y-9608500D01*
X15840000Y-9668500D01*
X15900000Y-9728500D01*
D11*
X11038277Y-10873984D02*
X11038277Y-10673984D01*
X11038277Y-10673984D02*
X11085896Y-10673984D01*
X11085896Y-10673984D02*
X11114467Y-10683508D01*
X11114467Y-10683508D02*
X11133515Y-10702555D01*
X11133515Y-10702555D02*
X11143039Y-10721603D01*
X11143039Y-10721603D02*
X11152563Y-10759698D01*
X11152563Y-10759698D02*
X11152563Y-10788270D01*
X11152563Y-10788270D02*
X11143039Y-10826365D01*
X11143039Y-10826365D02*
X11133515Y-10845412D01*
X11133515Y-10845412D02*
X11114467Y-10864460D01*
X11114467Y-10864460D02*
X11085896Y-10873984D01*
X11085896Y-10873984D02*
X11038277Y-10873984D01*
X11238277Y-10873984D02*
X11238277Y-10740650D01*
X11238277Y-10778746D02*
X11247801Y-10759698D01*
X11247801Y-10759698D02*
X11257324Y-10750174D01*
X11257324Y-10750174D02*
X11276372Y-10740650D01*
X11276372Y-10740650D02*
X11295420Y-10740650D01*
X11362086Y-10873984D02*
X11362086Y-10740650D01*
X11362086Y-10673984D02*
X11352562Y-10683508D01*
X11352562Y-10683508D02*
X11362086Y-10693031D01*
X11362086Y-10693031D02*
X11371610Y-10683508D01*
X11371610Y-10683508D02*
X11362086Y-10673984D01*
X11362086Y-10673984D02*
X11362086Y-10693031D01*
X11485896Y-10873984D02*
X11466848Y-10864460D01*
X11466848Y-10864460D02*
X11457324Y-10845412D01*
X11457324Y-10845412D02*
X11457324Y-10673984D01*
X11590658Y-10873984D02*
X11571610Y-10864460D01*
X11571610Y-10864460D02*
X11562086Y-10845412D01*
X11562086Y-10845412D02*
X11562086Y-10673984D01*
X11819229Y-10873984D02*
X11819229Y-10673984D01*
X11819229Y-10673984D02*
X11885896Y-10816841D01*
X11885896Y-10816841D02*
X11952562Y-10673984D01*
X11952562Y-10673984D02*
X11952562Y-10873984D01*
X12133515Y-10873984D02*
X12133515Y-10769222D01*
X12133515Y-10769222D02*
X12123991Y-10750174D01*
X12123991Y-10750174D02*
X12104943Y-10740650D01*
X12104943Y-10740650D02*
X12066848Y-10740650D01*
X12066848Y-10740650D02*
X12047801Y-10750174D01*
X12133515Y-10864460D02*
X12114467Y-10873984D01*
X12114467Y-10873984D02*
X12066848Y-10873984D01*
X12066848Y-10873984D02*
X12047801Y-10864460D01*
X12047801Y-10864460D02*
X12038277Y-10845412D01*
X12038277Y-10845412D02*
X12038277Y-10826365D01*
X12038277Y-10826365D02*
X12047801Y-10807317D01*
X12047801Y-10807317D02*
X12066848Y-10797793D01*
X12066848Y-10797793D02*
X12114467Y-10797793D01*
X12114467Y-10797793D02*
X12133515Y-10788270D01*
X12228753Y-10740650D02*
X12228753Y-10940650D01*
X12228753Y-10750174D02*
X12247801Y-10740650D01*
X12247801Y-10740650D02*
X12285896Y-10740650D01*
X12285896Y-10740650D02*
X12304943Y-10750174D01*
X12304943Y-10750174D02*
X12314467Y-10759698D01*
X12314467Y-10759698D02*
X12323991Y-10778746D01*
X12323991Y-10778746D02*
X12323991Y-10835889D01*
X12323991Y-10835889D02*
X12314467Y-10854936D01*
X12314467Y-10854936D02*
X12304943Y-10864460D01*
X12304943Y-10864460D02*
X12285896Y-10873984D01*
X12285896Y-10873984D02*
X12247801Y-10873984D01*
X12247801Y-10873984D02*
X12228753Y-10864460D01*
X12409705Y-10854936D02*
X12419229Y-10864460D01*
X12419229Y-10864460D02*
X12409705Y-10873984D01*
X12409705Y-10873984D02*
X12400182Y-10864460D01*
X12400182Y-10864460D02*
X12409705Y-10854936D01*
X12409705Y-10854936D02*
X12409705Y-10873984D01*
X12409705Y-10750174D02*
X12419229Y-10759698D01*
X12419229Y-10759698D02*
X12409705Y-10769222D01*
X12409705Y-10769222D02*
X12400182Y-10759698D01*
X12400182Y-10759698D02*
X12409705Y-10750174D01*
X12409705Y-10750174D02*
X12409705Y-10769222D01*
D12*
X10747500Y-11187500D02*
X10777500Y-11217500D01*
X10777500Y-11187500D02*
X10747500Y-11217500D01*
D11*
X11076372Y-11093984D02*
X11095420Y-11093984D01*
X11095420Y-11093984D02*
X11114467Y-11103508D01*
X11114467Y-11103508D02*
X11123991Y-11113031D01*
X11123991Y-11113031D02*
X11133515Y-11132079D01*
X11133515Y-11132079D02*
X11143039Y-11170174D01*
X11143039Y-11170174D02*
X11143039Y-11217793D01*
X11143039Y-11217793D02*
X11133515Y-11255888D01*
X11133515Y-11255888D02*
X11123991Y-11274936D01*
X11123991Y-11274936D02*
X11114467Y-11284460D01*
X11114467Y-11284460D02*
X11095420Y-11293984D01*
X11095420Y-11293984D02*
X11076372Y-11293984D01*
X11076372Y-11293984D02*
X11057324Y-11284460D01*
X11057324Y-11284460D02*
X11047801Y-11274936D01*
X11047801Y-11274936D02*
X11038277Y-11255888D01*
X11038277Y-11255888D02*
X11028753Y-11217793D01*
X11028753Y-11217793D02*
X11028753Y-11170174D01*
X11028753Y-11170174D02*
X11038277Y-11132079D01*
X11038277Y-11132079D02*
X11047801Y-11113031D01*
X11047801Y-11113031D02*
X11057324Y-11103508D01*
X11057324Y-11103508D02*
X11076372Y-11093984D01*
X11228753Y-11274936D02*
X11238277Y-11284460D01*
X11238277Y-11284460D02*
X11228753Y-11293984D01*
X11228753Y-11293984D02*
X11219229Y-11284460D01*
X11219229Y-11284460D02*
X11228753Y-11274936D01*
X11228753Y-11274936D02*
X11228753Y-11293984D01*
X11304943Y-11093984D02*
X11428753Y-11093984D01*
X11428753Y-11093984D02*
X11362086Y-11170174D01*
X11362086Y-11170174D02*
X11390658Y-11170174D01*
X11390658Y-11170174D02*
X11409705Y-11179698D01*
X11409705Y-11179698D02*
X11419229Y-11189222D01*
X11419229Y-11189222D02*
X11428753Y-11208269D01*
X11428753Y-11208269D02*
X11428753Y-11255888D01*
X11428753Y-11255888D02*
X11419229Y-11274936D01*
X11419229Y-11274936D02*
X11409705Y-11284460D01*
X11409705Y-11284460D02*
X11390658Y-11293984D01*
X11390658Y-11293984D02*
X11333515Y-11293984D01*
X11333515Y-11293984D02*
X11314467Y-11284460D01*
X11314467Y-11284460D02*
X11304943Y-11274936D01*
X11552562Y-11093984D02*
X11571610Y-11093984D01*
X11571610Y-11093984D02*
X11590658Y-11103508D01*
X11590658Y-11103508D02*
X11600182Y-11113031D01*
X11600182Y-11113031D02*
X11609705Y-11132079D01*
X11609705Y-11132079D02*
X11619229Y-11170174D01*
X11619229Y-11170174D02*
X11619229Y-11217793D01*
X11619229Y-11217793D02*
X11609705Y-11255888D01*
X11609705Y-11255888D02*
X11600182Y-11274936D01*
X11600182Y-11274936D02*
X11590658Y-11284460D01*
X11590658Y-11284460D02*
X11571610Y-11293984D01*
X11571610Y-11293984D02*
X11552562Y-11293984D01*
X11552562Y-11293984D02*
X11533515Y-11284460D01*
X11533515Y-11284460D02*
X11523991Y-11274936D01*
X11523991Y-11274936D02*
X11514467Y-11255888D01*
X11514467Y-11255888D02*
X11504943Y-11217793D01*
X11504943Y-11217793D02*
X11504943Y-11170174D01*
X11504943Y-11170174D02*
X11514467Y-11132079D01*
X11514467Y-11132079D02*
X11523991Y-11113031D01*
X11523991Y-11113031D02*
X11533515Y-11103508D01*
X11533515Y-11103508D02*
X11552562Y-11093984D01*
X11743039Y-11093984D02*
X11762086Y-11093984D01*
X11762086Y-11093984D02*
X11781134Y-11103508D01*
X11781134Y-11103508D02*
X11790658Y-11113031D01*
X11790658Y-11113031D02*
X11800182Y-11132079D01*
X11800182Y-11132079D02*
X11809705Y-11170174D01*
X11809705Y-11170174D02*
X11809705Y-11217793D01*
X11809705Y-11217793D02*
X11800182Y-11255888D01*
X11800182Y-11255888D02*
X11790658Y-11274936D01*
X11790658Y-11274936D02*
X11781134Y-11284460D01*
X11781134Y-11284460D02*
X11762086Y-11293984D01*
X11762086Y-11293984D02*
X11743039Y-11293984D01*
X11743039Y-11293984D02*
X11723991Y-11284460D01*
X11723991Y-11284460D02*
X11714467Y-11274936D01*
X11714467Y-11274936D02*
X11704943Y-11255888D01*
X11704943Y-11255888D02*
X11695420Y-11217793D01*
X11695420Y-11217793D02*
X11695420Y-11170174D01*
X11695420Y-11170174D02*
X11704943Y-11132079D01*
X11704943Y-11132079D02*
X11714467Y-11113031D01*
X11714467Y-11113031D02*
X11723991Y-11103508D01*
X11723991Y-11103508D02*
X11743039Y-11093984D01*
X11895420Y-11293984D02*
X11895420Y-11160650D01*
X11895420Y-11179698D02*
X11904943Y-11170174D01*
X11904943Y-11170174D02*
X11923991Y-11160650D01*
X11923991Y-11160650D02*
X11952563Y-11160650D01*
X11952563Y-11160650D02*
X11971610Y-11170174D01*
X11971610Y-11170174D02*
X11981134Y-11189222D01*
X11981134Y-11189222D02*
X11981134Y-11293984D01*
X11981134Y-11189222D02*
X11990658Y-11170174D01*
X11990658Y-11170174D02*
X12009705Y-11160650D01*
X12009705Y-11160650D02*
X12038277Y-11160650D01*
X12038277Y-11160650D02*
X12057324Y-11170174D01*
X12057324Y-11170174D02*
X12066848Y-11189222D01*
X12066848Y-11189222D02*
X12066848Y-11293984D01*
X12162086Y-11293984D02*
X12162086Y-11160650D01*
X12162086Y-11179698D02*
X12171610Y-11170174D01*
X12171610Y-11170174D02*
X12190658Y-11160650D01*
X12190658Y-11160650D02*
X12219229Y-11160650D01*
X12219229Y-11160650D02*
X12238277Y-11170174D01*
X12238277Y-11170174D02*
X12247801Y-11189222D01*
X12247801Y-11189222D02*
X12247801Y-11293984D01*
X12247801Y-11189222D02*
X12257324Y-11170174D01*
X12257324Y-11170174D02*
X12276372Y-11160650D01*
X12276372Y-11160650D02*
X12304943Y-11160650D01*
X12304943Y-11160650D02*
X12323991Y-11170174D01*
X12323991Y-11170174D02*
X12333515Y-11189222D01*
X12333515Y-11189222D02*
X12333515Y-11293984D01*
X12723991Y-11084460D02*
X12552563Y-11341603D01*
X12981134Y-11093984D02*
X13000182Y-11093984D01*
X13000182Y-11093984D02*
X13019229Y-11103508D01*
X13019229Y-11103508D02*
X13028753Y-11113031D01*
X13028753Y-11113031D02*
X13038277Y-11132079D01*
X13038277Y-11132079D02*
X13047801Y-11170174D01*
X13047801Y-11170174D02*
X13047801Y-11217793D01*
X13047801Y-11217793D02*
X13038277Y-11255888D01*
X13038277Y-11255888D02*
X13028753Y-11274936D01*
X13028753Y-11274936D02*
X13019229Y-11284460D01*
X13019229Y-11284460D02*
X13000182Y-11293984D01*
X13000182Y-11293984D02*
X12981134Y-11293984D01*
X12981134Y-11293984D02*
X12962086Y-11284460D01*
X12962086Y-11284460D02*
X12952563Y-11274936D01*
X12952563Y-11274936D02*
X12943039Y-11255888D01*
X12943039Y-11255888D02*
X12933515Y-11217793D01*
X12933515Y-11217793D02*
X12933515Y-11170174D01*
X12933515Y-11170174D02*
X12943039Y-11132079D01*
X12943039Y-11132079D02*
X12952563Y-11113031D01*
X12952563Y-11113031D02*
X12962086Y-11103508D01*
X12962086Y-11103508D02*
X12981134Y-11093984D01*
X13133515Y-11274936D02*
X13143039Y-11284460D01*
X13143039Y-11284460D02*
X13133515Y-11293984D01*
X13133515Y-11293984D02*
X13123991Y-11284460D01*
X13123991Y-11284460D02*
X13133515Y-11274936D01*
X13133515Y-11274936D02*
X13133515Y-11293984D01*
X13266848Y-11093984D02*
X13285896Y-11093984D01*
X13285896Y-11093984D02*
X13304944Y-11103508D01*
X13304944Y-11103508D02*
X13314467Y-11113031D01*
X13314467Y-11113031D02*
X13323991Y-11132079D01*
X13323991Y-11132079D02*
X13333515Y-11170174D01*
X13333515Y-11170174D02*
X13333515Y-11217793D01*
X13333515Y-11217793D02*
X13323991Y-11255888D01*
X13323991Y-11255888D02*
X13314467Y-11274936D01*
X13314467Y-11274936D02*
X13304944Y-11284460D01*
X13304944Y-11284460D02*
X13285896Y-11293984D01*
X13285896Y-11293984D02*
X13266848Y-11293984D01*
X13266848Y-11293984D02*
X13247801Y-11284460D01*
X13247801Y-11284460D02*
X13238277Y-11274936D01*
X13238277Y-11274936D02*
X13228753Y-11255888D01*
X13228753Y-11255888D02*
X13219229Y-11217793D01*
X13219229Y-11217793D02*
X13219229Y-11170174D01*
X13219229Y-11170174D02*
X13228753Y-11132079D01*
X13228753Y-11132079D02*
X13238277Y-11113031D01*
X13238277Y-11113031D02*
X13247801Y-11103508D01*
X13247801Y-11103508D02*
X13266848Y-11093984D01*
X13523991Y-11293984D02*
X13409706Y-11293984D01*
X13466848Y-11293984D02*
X13466848Y-11093984D01*
X13466848Y-11093984D02*
X13447801Y-11122555D01*
X13447801Y-11122555D02*
X13428753Y-11141603D01*
X13428753Y-11141603D02*
X13409706Y-11151127D01*
X13714467Y-11293984D02*
X13600182Y-11293984D01*
X13657325Y-11293984D02*
X13657325Y-11093984D01*
X13657325Y-11093984D02*
X13638277Y-11122555D01*
X13638277Y-11122555D02*
X13619229Y-11141603D01*
X13619229Y-11141603D02*
X13600182Y-11151127D01*
X13828753Y-11179698D02*
X13809706Y-11170174D01*
X13809706Y-11170174D02*
X13800182Y-11160650D01*
X13800182Y-11160650D02*
X13790658Y-11141603D01*
X13790658Y-11141603D02*
X13790658Y-11132079D01*
X13790658Y-11132079D02*
X13800182Y-11113031D01*
X13800182Y-11113031D02*
X13809706Y-11103508D01*
X13809706Y-11103508D02*
X13828753Y-11093984D01*
X13828753Y-11093984D02*
X13866848Y-11093984D01*
X13866848Y-11093984D02*
X13885896Y-11103508D01*
X13885896Y-11103508D02*
X13895420Y-11113031D01*
X13895420Y-11113031D02*
X13904944Y-11132079D01*
X13904944Y-11132079D02*
X13904944Y-11141603D01*
X13904944Y-11141603D02*
X13895420Y-11160650D01*
X13895420Y-11160650D02*
X13885896Y-11170174D01*
X13885896Y-11170174D02*
X13866848Y-11179698D01*
X13866848Y-11179698D02*
X13828753Y-11179698D01*
X13828753Y-11179698D02*
X13809706Y-11189222D01*
X13809706Y-11189222D02*
X13800182Y-11198746D01*
X13800182Y-11198746D02*
X13790658Y-11217793D01*
X13790658Y-11217793D02*
X13790658Y-11255888D01*
X13790658Y-11255888D02*
X13800182Y-11274936D01*
X13800182Y-11274936D02*
X13809706Y-11284460D01*
X13809706Y-11284460D02*
X13828753Y-11293984D01*
X13828753Y-11293984D02*
X13866848Y-11293984D01*
X13866848Y-11293984D02*
X13885896Y-11284460D01*
X13885896Y-11284460D02*
X13895420Y-11274936D01*
X13895420Y-11274936D02*
X13904944Y-11255888D01*
X13904944Y-11255888D02*
X13904944Y-11217793D01*
X13904944Y-11217793D02*
X13895420Y-11198746D01*
X13895420Y-11198746D02*
X13885896Y-11189222D01*
X13885896Y-11189222D02*
X13866848Y-11179698D01*
X13981134Y-11093984D02*
X13981134Y-11132079D01*
X14057325Y-11093984D02*
X14057325Y-11132079D01*
X14352563Y-11370174D02*
X14343039Y-11360650D01*
X14343039Y-11360650D02*
X14323991Y-11332079D01*
X14323991Y-11332079D02*
X14314468Y-11313031D01*
X14314468Y-11313031D02*
X14304944Y-11284460D01*
X14304944Y-11284460D02*
X14295420Y-11236841D01*
X14295420Y-11236841D02*
X14295420Y-11198746D01*
X14295420Y-11198746D02*
X14304944Y-11151127D01*
X14304944Y-11151127D02*
X14314468Y-11122555D01*
X14314468Y-11122555D02*
X14323991Y-11103508D01*
X14323991Y-11103508D02*
X14343039Y-11074936D01*
X14343039Y-11074936D02*
X14352563Y-11065412D01*
X14419229Y-11113031D02*
X14428753Y-11103508D01*
X14428753Y-11103508D02*
X14447801Y-11093984D01*
X14447801Y-11093984D02*
X14495420Y-11093984D01*
X14495420Y-11093984D02*
X14514468Y-11103508D01*
X14514468Y-11103508D02*
X14523991Y-11113031D01*
X14523991Y-11113031D02*
X14533515Y-11132079D01*
X14533515Y-11132079D02*
X14533515Y-11151127D01*
X14533515Y-11151127D02*
X14523991Y-11179698D01*
X14523991Y-11179698D02*
X14409706Y-11293984D01*
X14409706Y-11293984D02*
X14533515Y-11293984D01*
X14771610Y-11293984D02*
X14771610Y-11093984D01*
X14857325Y-11293984D02*
X14857325Y-11189222D01*
X14857325Y-11189222D02*
X14847801Y-11170174D01*
X14847801Y-11170174D02*
X14828753Y-11160650D01*
X14828753Y-11160650D02*
X14800182Y-11160650D01*
X14800182Y-11160650D02*
X14781134Y-11170174D01*
X14781134Y-11170174D02*
X14771610Y-11179698D01*
X14981134Y-11293984D02*
X14962087Y-11284460D01*
X14962087Y-11284460D02*
X14952563Y-11274936D01*
X14952563Y-11274936D02*
X14943039Y-11255888D01*
X14943039Y-11255888D02*
X14943039Y-11198746D01*
X14943039Y-11198746D02*
X14952563Y-11179698D01*
X14952563Y-11179698D02*
X14962087Y-11170174D01*
X14962087Y-11170174D02*
X14981134Y-11160650D01*
X14981134Y-11160650D02*
X15009706Y-11160650D01*
X15009706Y-11160650D02*
X15028753Y-11170174D01*
X15028753Y-11170174D02*
X15038277Y-11179698D01*
X15038277Y-11179698D02*
X15047801Y-11198746D01*
X15047801Y-11198746D02*
X15047801Y-11255888D01*
X15047801Y-11255888D02*
X15038277Y-11274936D01*
X15038277Y-11274936D02*
X15028753Y-11284460D01*
X15028753Y-11284460D02*
X15009706Y-11293984D01*
X15009706Y-11293984D02*
X14981134Y-11293984D01*
X15162087Y-11293984D02*
X15143039Y-11284460D01*
X15143039Y-11284460D02*
X15133515Y-11265412D01*
X15133515Y-11265412D02*
X15133515Y-11093984D01*
X15314468Y-11284460D02*
X15295420Y-11293984D01*
X15295420Y-11293984D02*
X15257325Y-11293984D01*
X15257325Y-11293984D02*
X15238277Y-11284460D01*
X15238277Y-11284460D02*
X15228753Y-11265412D01*
X15228753Y-11265412D02*
X15228753Y-11189222D01*
X15228753Y-11189222D02*
X15238277Y-11170174D01*
X15238277Y-11170174D02*
X15257325Y-11160650D01*
X15257325Y-11160650D02*
X15295420Y-11160650D01*
X15295420Y-11160650D02*
X15314468Y-11170174D01*
X15314468Y-11170174D02*
X15323991Y-11189222D01*
X15323991Y-11189222D02*
X15323991Y-11208269D01*
X15323991Y-11208269D02*
X15228753Y-11227317D01*
X15400182Y-11284460D02*
X15419230Y-11293984D01*
X15419230Y-11293984D02*
X15457325Y-11293984D01*
X15457325Y-11293984D02*
X15476372Y-11284460D01*
X15476372Y-11284460D02*
X15485896Y-11265412D01*
X15485896Y-11265412D02*
X15485896Y-11255888D01*
X15485896Y-11255888D02*
X15476372Y-11236841D01*
X15476372Y-11236841D02*
X15457325Y-11227317D01*
X15457325Y-11227317D02*
X15428753Y-11227317D01*
X15428753Y-11227317D02*
X15409706Y-11217793D01*
X15409706Y-11217793D02*
X15400182Y-11198746D01*
X15400182Y-11198746D02*
X15400182Y-11189222D01*
X15400182Y-11189222D02*
X15409706Y-11170174D01*
X15409706Y-11170174D02*
X15428753Y-11160650D01*
X15428753Y-11160650D02*
X15457325Y-11160650D01*
X15457325Y-11160650D02*
X15476372Y-11170174D01*
X15552563Y-11370174D02*
X15562087Y-11360650D01*
X15562087Y-11360650D02*
X15581134Y-11332079D01*
X15581134Y-11332079D02*
X15590658Y-11313031D01*
X15590658Y-11313031D02*
X15600182Y-11284460D01*
X15600182Y-11284460D02*
X15609706Y-11236841D01*
X15609706Y-11236841D02*
X15609706Y-11198746D01*
X15609706Y-11198746D02*
X15600182Y-11151127D01*
X15600182Y-11151127D02*
X15590658Y-11122555D01*
X15590658Y-11122555D02*
X15581134Y-11103508D01*
X15581134Y-11103508D02*
X15562087Y-11074936D01*
X15562087Y-11074936D02*
X15552563Y-11065412D01*
D12*
X10777500Y-11466500D02*
G75*
G02*
X10697500Y-11466500I-40000J0D01*
G01*
X10697500Y-11466500D02*
G75*
G02*
X10777500Y-11466500I40000J0D01*
G01*
D11*
X11076372Y-11357984D02*
X11095420Y-11357984D01*
X11095420Y-11357984D02*
X11114467Y-11367508D01*
X11114467Y-11367508D02*
X11123991Y-11377031D01*
X11123991Y-11377031D02*
X11133515Y-11396079D01*
X11133515Y-11396079D02*
X11143039Y-11434174D01*
X11143039Y-11434174D02*
X11143039Y-11481793D01*
X11143039Y-11481793D02*
X11133515Y-11519888D01*
X11133515Y-11519888D02*
X11123991Y-11538936D01*
X11123991Y-11538936D02*
X11114467Y-11548460D01*
X11114467Y-11548460D02*
X11095420Y-11557984D01*
X11095420Y-11557984D02*
X11076372Y-11557984D01*
X11076372Y-11557984D02*
X11057324Y-11548460D01*
X11057324Y-11548460D02*
X11047801Y-11538936D01*
X11047801Y-11538936D02*
X11038277Y-11519888D01*
X11038277Y-11519888D02*
X11028753Y-11481793D01*
X11028753Y-11481793D02*
X11028753Y-11434174D01*
X11028753Y-11434174D02*
X11038277Y-11396079D01*
X11038277Y-11396079D02*
X11047801Y-11377031D01*
X11047801Y-11377031D02*
X11057324Y-11367508D01*
X11057324Y-11367508D02*
X11076372Y-11357984D01*
X11228753Y-11538936D02*
X11238277Y-11548460D01*
X11238277Y-11548460D02*
X11228753Y-11557984D01*
X11228753Y-11557984D02*
X11219229Y-11548460D01*
X11219229Y-11548460D02*
X11228753Y-11538936D01*
X11228753Y-11538936D02*
X11228753Y-11557984D01*
X11352562Y-11443698D02*
X11333515Y-11434174D01*
X11333515Y-11434174D02*
X11323991Y-11424650D01*
X11323991Y-11424650D02*
X11314467Y-11405603D01*
X11314467Y-11405603D02*
X11314467Y-11396079D01*
X11314467Y-11396079D02*
X11323991Y-11377031D01*
X11323991Y-11377031D02*
X11333515Y-11367508D01*
X11333515Y-11367508D02*
X11352562Y-11357984D01*
X11352562Y-11357984D02*
X11390658Y-11357984D01*
X11390658Y-11357984D02*
X11409705Y-11367508D01*
X11409705Y-11367508D02*
X11419229Y-11377031D01*
X11419229Y-11377031D02*
X11428753Y-11396079D01*
X11428753Y-11396079D02*
X11428753Y-11405603D01*
X11428753Y-11405603D02*
X11419229Y-11424650D01*
X11419229Y-11424650D02*
X11409705Y-11434174D01*
X11409705Y-11434174D02*
X11390658Y-11443698D01*
X11390658Y-11443698D02*
X11352562Y-11443698D01*
X11352562Y-11443698D02*
X11333515Y-11453222D01*
X11333515Y-11453222D02*
X11323991Y-11462746D01*
X11323991Y-11462746D02*
X11314467Y-11481793D01*
X11314467Y-11481793D02*
X11314467Y-11519888D01*
X11314467Y-11519888D02*
X11323991Y-11538936D01*
X11323991Y-11538936D02*
X11333515Y-11548460D01*
X11333515Y-11548460D02*
X11352562Y-11557984D01*
X11352562Y-11557984D02*
X11390658Y-11557984D01*
X11390658Y-11557984D02*
X11409705Y-11548460D01*
X11409705Y-11548460D02*
X11419229Y-11538936D01*
X11419229Y-11538936D02*
X11428753Y-11519888D01*
X11428753Y-11519888D02*
X11428753Y-11481793D01*
X11428753Y-11481793D02*
X11419229Y-11462746D01*
X11419229Y-11462746D02*
X11409705Y-11453222D01*
X11409705Y-11453222D02*
X11390658Y-11443698D01*
X11552562Y-11357984D02*
X11571610Y-11357984D01*
X11571610Y-11357984D02*
X11590658Y-11367508D01*
X11590658Y-11367508D02*
X11600182Y-11377031D01*
X11600182Y-11377031D02*
X11609705Y-11396079D01*
X11609705Y-11396079D02*
X11619229Y-11434174D01*
X11619229Y-11434174D02*
X11619229Y-11481793D01*
X11619229Y-11481793D02*
X11609705Y-11519888D01*
X11609705Y-11519888D02*
X11600182Y-11538936D01*
X11600182Y-11538936D02*
X11590658Y-11548460D01*
X11590658Y-11548460D02*
X11571610Y-11557984D01*
X11571610Y-11557984D02*
X11552562Y-11557984D01*
X11552562Y-11557984D02*
X11533515Y-11548460D01*
X11533515Y-11548460D02*
X11523991Y-11538936D01*
X11523991Y-11538936D02*
X11514467Y-11519888D01*
X11514467Y-11519888D02*
X11504943Y-11481793D01*
X11504943Y-11481793D02*
X11504943Y-11434174D01*
X11504943Y-11434174D02*
X11514467Y-11396079D01*
X11514467Y-11396079D02*
X11523991Y-11377031D01*
X11523991Y-11377031D02*
X11533515Y-11367508D01*
X11533515Y-11367508D02*
X11552562Y-11357984D01*
X11743039Y-11357984D02*
X11762086Y-11357984D01*
X11762086Y-11357984D02*
X11781134Y-11367508D01*
X11781134Y-11367508D02*
X11790658Y-11377031D01*
X11790658Y-11377031D02*
X11800182Y-11396079D01*
X11800182Y-11396079D02*
X11809705Y-11434174D01*
X11809705Y-11434174D02*
X11809705Y-11481793D01*
X11809705Y-11481793D02*
X11800182Y-11519888D01*
X11800182Y-11519888D02*
X11790658Y-11538936D01*
X11790658Y-11538936D02*
X11781134Y-11548460D01*
X11781134Y-11548460D02*
X11762086Y-11557984D01*
X11762086Y-11557984D02*
X11743039Y-11557984D01*
X11743039Y-11557984D02*
X11723991Y-11548460D01*
X11723991Y-11548460D02*
X11714467Y-11538936D01*
X11714467Y-11538936D02*
X11704943Y-11519888D01*
X11704943Y-11519888D02*
X11695420Y-11481793D01*
X11695420Y-11481793D02*
X11695420Y-11434174D01*
X11695420Y-11434174D02*
X11704943Y-11396079D01*
X11704943Y-11396079D02*
X11714467Y-11377031D01*
X11714467Y-11377031D02*
X11723991Y-11367508D01*
X11723991Y-11367508D02*
X11743039Y-11357984D01*
X11895420Y-11557984D02*
X11895420Y-11424650D01*
X11895420Y-11443698D02*
X11904943Y-11434174D01*
X11904943Y-11434174D02*
X11923991Y-11424650D01*
X11923991Y-11424650D02*
X11952563Y-11424650D01*
X11952563Y-11424650D02*
X11971610Y-11434174D01*
X11971610Y-11434174D02*
X11981134Y-11453222D01*
X11981134Y-11453222D02*
X11981134Y-11557984D01*
X11981134Y-11453222D02*
X11990658Y-11434174D01*
X11990658Y-11434174D02*
X12009705Y-11424650D01*
X12009705Y-11424650D02*
X12038277Y-11424650D01*
X12038277Y-11424650D02*
X12057324Y-11434174D01*
X12057324Y-11434174D02*
X12066848Y-11453222D01*
X12066848Y-11453222D02*
X12066848Y-11557984D01*
X12162086Y-11557984D02*
X12162086Y-11424650D01*
X12162086Y-11443698D02*
X12171610Y-11434174D01*
X12171610Y-11434174D02*
X12190658Y-11424650D01*
X12190658Y-11424650D02*
X12219229Y-11424650D01*
X12219229Y-11424650D02*
X12238277Y-11434174D01*
X12238277Y-11434174D02*
X12247801Y-11453222D01*
X12247801Y-11453222D02*
X12247801Y-11557984D01*
X12247801Y-11453222D02*
X12257324Y-11434174D01*
X12257324Y-11434174D02*
X12276372Y-11424650D01*
X12276372Y-11424650D02*
X12304943Y-11424650D01*
X12304943Y-11424650D02*
X12323991Y-11434174D01*
X12323991Y-11434174D02*
X12333515Y-11453222D01*
X12333515Y-11453222D02*
X12333515Y-11557984D01*
X12723991Y-11348460D02*
X12552563Y-11605603D01*
X12981134Y-11357984D02*
X13000182Y-11357984D01*
X13000182Y-11357984D02*
X13019229Y-11367508D01*
X13019229Y-11367508D02*
X13028753Y-11377031D01*
X13028753Y-11377031D02*
X13038277Y-11396079D01*
X13038277Y-11396079D02*
X13047801Y-11434174D01*
X13047801Y-11434174D02*
X13047801Y-11481793D01*
X13047801Y-11481793D02*
X13038277Y-11519888D01*
X13038277Y-11519888D02*
X13028753Y-11538936D01*
X13028753Y-11538936D02*
X13019229Y-11548460D01*
X13019229Y-11548460D02*
X13000182Y-11557984D01*
X13000182Y-11557984D02*
X12981134Y-11557984D01*
X12981134Y-11557984D02*
X12962086Y-11548460D01*
X12962086Y-11548460D02*
X12952563Y-11538936D01*
X12952563Y-11538936D02*
X12943039Y-11519888D01*
X12943039Y-11519888D02*
X12933515Y-11481793D01*
X12933515Y-11481793D02*
X12933515Y-11434174D01*
X12933515Y-11434174D02*
X12943039Y-11396079D01*
X12943039Y-11396079D02*
X12952563Y-11377031D01*
X12952563Y-11377031D02*
X12962086Y-11367508D01*
X12962086Y-11367508D02*
X12981134Y-11357984D01*
X13133515Y-11538936D02*
X13143039Y-11548460D01*
X13143039Y-11548460D02*
X13133515Y-11557984D01*
X13133515Y-11557984D02*
X13123991Y-11548460D01*
X13123991Y-11548460D02*
X13133515Y-11538936D01*
X13133515Y-11538936D02*
X13133515Y-11557984D01*
X13266848Y-11357984D02*
X13285896Y-11357984D01*
X13285896Y-11357984D02*
X13304944Y-11367508D01*
X13304944Y-11367508D02*
X13314467Y-11377031D01*
X13314467Y-11377031D02*
X13323991Y-11396079D01*
X13323991Y-11396079D02*
X13333515Y-11434174D01*
X13333515Y-11434174D02*
X13333515Y-11481793D01*
X13333515Y-11481793D02*
X13323991Y-11519888D01*
X13323991Y-11519888D02*
X13314467Y-11538936D01*
X13314467Y-11538936D02*
X13304944Y-11548460D01*
X13304944Y-11548460D02*
X13285896Y-11557984D01*
X13285896Y-11557984D02*
X13266848Y-11557984D01*
X13266848Y-11557984D02*
X13247801Y-11548460D01*
X13247801Y-11548460D02*
X13238277Y-11538936D01*
X13238277Y-11538936D02*
X13228753Y-11519888D01*
X13228753Y-11519888D02*
X13219229Y-11481793D01*
X13219229Y-11481793D02*
X13219229Y-11434174D01*
X13219229Y-11434174D02*
X13228753Y-11396079D01*
X13228753Y-11396079D02*
X13238277Y-11377031D01*
X13238277Y-11377031D02*
X13247801Y-11367508D01*
X13247801Y-11367508D02*
X13266848Y-11357984D01*
X13400182Y-11357984D02*
X13523991Y-11357984D01*
X13523991Y-11357984D02*
X13457325Y-11434174D01*
X13457325Y-11434174D02*
X13485896Y-11434174D01*
X13485896Y-11434174D02*
X13504944Y-11443698D01*
X13504944Y-11443698D02*
X13514467Y-11453222D01*
X13514467Y-11453222D02*
X13523991Y-11472269D01*
X13523991Y-11472269D02*
X13523991Y-11519888D01*
X13523991Y-11519888D02*
X13514467Y-11538936D01*
X13514467Y-11538936D02*
X13504944Y-11548460D01*
X13504944Y-11548460D02*
X13485896Y-11557984D01*
X13485896Y-11557984D02*
X13428753Y-11557984D01*
X13428753Y-11557984D02*
X13409706Y-11548460D01*
X13409706Y-11548460D02*
X13400182Y-11538936D01*
X13714467Y-11557984D02*
X13600182Y-11557984D01*
X13657325Y-11557984D02*
X13657325Y-11357984D01*
X13657325Y-11357984D02*
X13638277Y-11386555D01*
X13638277Y-11386555D02*
X13619229Y-11405603D01*
X13619229Y-11405603D02*
X13600182Y-11415127D01*
X13895420Y-11357984D02*
X13800182Y-11357984D01*
X13800182Y-11357984D02*
X13790658Y-11453222D01*
X13790658Y-11453222D02*
X13800182Y-11443698D01*
X13800182Y-11443698D02*
X13819229Y-11434174D01*
X13819229Y-11434174D02*
X13866848Y-11434174D01*
X13866848Y-11434174D02*
X13885896Y-11443698D01*
X13885896Y-11443698D02*
X13895420Y-11453222D01*
X13895420Y-11453222D02*
X13904944Y-11472269D01*
X13904944Y-11472269D02*
X13904944Y-11519888D01*
X13904944Y-11519888D02*
X13895420Y-11538936D01*
X13895420Y-11538936D02*
X13885896Y-11548460D01*
X13885896Y-11548460D02*
X13866848Y-11557984D01*
X13866848Y-11557984D02*
X13819229Y-11557984D01*
X13819229Y-11557984D02*
X13800182Y-11548460D01*
X13800182Y-11548460D02*
X13790658Y-11538936D01*
X13981134Y-11357984D02*
X13981134Y-11396079D01*
X14057325Y-11357984D02*
X14057325Y-11396079D01*
X14352563Y-11634174D02*
X14343039Y-11624650D01*
X14343039Y-11624650D02*
X14323991Y-11596079D01*
X14323991Y-11596079D02*
X14314468Y-11577031D01*
X14314468Y-11577031D02*
X14304944Y-11548460D01*
X14304944Y-11548460D02*
X14295420Y-11500841D01*
X14295420Y-11500841D02*
X14295420Y-11462746D01*
X14295420Y-11462746D02*
X14304944Y-11415127D01*
X14304944Y-11415127D02*
X14314468Y-11386555D01*
X14314468Y-11386555D02*
X14323991Y-11367508D01*
X14323991Y-11367508D02*
X14343039Y-11338936D01*
X14343039Y-11338936D02*
X14352563Y-11329412D01*
X14533515Y-11557984D02*
X14419229Y-11557984D01*
X14476372Y-11557984D02*
X14476372Y-11357984D01*
X14476372Y-11357984D02*
X14457325Y-11386555D01*
X14457325Y-11386555D02*
X14438277Y-11405603D01*
X14438277Y-11405603D02*
X14419229Y-11415127D01*
X14657325Y-11357984D02*
X14676372Y-11357984D01*
X14676372Y-11357984D02*
X14695420Y-11367508D01*
X14695420Y-11367508D02*
X14704944Y-11377031D01*
X14704944Y-11377031D02*
X14714468Y-11396079D01*
X14714468Y-11396079D02*
X14723991Y-11434174D01*
X14723991Y-11434174D02*
X14723991Y-11481793D01*
X14723991Y-11481793D02*
X14714468Y-11519888D01*
X14714468Y-11519888D02*
X14704944Y-11538936D01*
X14704944Y-11538936D02*
X14695420Y-11548460D01*
X14695420Y-11548460D02*
X14676372Y-11557984D01*
X14676372Y-11557984D02*
X14657325Y-11557984D01*
X14657325Y-11557984D02*
X14638277Y-11548460D01*
X14638277Y-11548460D02*
X14628753Y-11538936D01*
X14628753Y-11538936D02*
X14619229Y-11519888D01*
X14619229Y-11519888D02*
X14609706Y-11481793D01*
X14609706Y-11481793D02*
X14609706Y-11434174D01*
X14609706Y-11434174D02*
X14619229Y-11396079D01*
X14619229Y-11396079D02*
X14628753Y-11377031D01*
X14628753Y-11377031D02*
X14638277Y-11367508D01*
X14638277Y-11367508D02*
X14657325Y-11357984D01*
X14962087Y-11557984D02*
X14962087Y-11357984D01*
X15047801Y-11557984D02*
X15047801Y-11453222D01*
X15047801Y-11453222D02*
X15038277Y-11434174D01*
X15038277Y-11434174D02*
X15019230Y-11424650D01*
X15019230Y-11424650D02*
X14990658Y-11424650D01*
X14990658Y-11424650D02*
X14971610Y-11434174D01*
X14971610Y-11434174D02*
X14962087Y-11443698D01*
X15171610Y-11557984D02*
X15152563Y-11548460D01*
X15152563Y-11548460D02*
X15143039Y-11538936D01*
X15143039Y-11538936D02*
X15133515Y-11519888D01*
X15133515Y-11519888D02*
X15133515Y-11462746D01*
X15133515Y-11462746D02*
X15143039Y-11443698D01*
X15143039Y-11443698D02*
X15152563Y-11434174D01*
X15152563Y-11434174D02*
X15171610Y-11424650D01*
X15171610Y-11424650D02*
X15200182Y-11424650D01*
X15200182Y-11424650D02*
X15219230Y-11434174D01*
X15219230Y-11434174D02*
X15228753Y-11443698D01*
X15228753Y-11443698D02*
X15238277Y-11462746D01*
X15238277Y-11462746D02*
X15238277Y-11519888D01*
X15238277Y-11519888D02*
X15228753Y-11538936D01*
X15228753Y-11538936D02*
X15219230Y-11548460D01*
X15219230Y-11548460D02*
X15200182Y-11557984D01*
X15200182Y-11557984D02*
X15171610Y-11557984D01*
X15352563Y-11557984D02*
X15333515Y-11548460D01*
X15333515Y-11548460D02*
X15323991Y-11529412D01*
X15323991Y-11529412D02*
X15323991Y-11357984D01*
X15504944Y-11548460D02*
X15485896Y-11557984D01*
X15485896Y-11557984D02*
X15447801Y-11557984D01*
X15447801Y-11557984D02*
X15428753Y-11548460D01*
X15428753Y-11548460D02*
X15419230Y-11529412D01*
X15419230Y-11529412D02*
X15419230Y-11453222D01*
X15419230Y-11453222D02*
X15428753Y-11434174D01*
X15428753Y-11434174D02*
X15447801Y-11424650D01*
X15447801Y-11424650D02*
X15485896Y-11424650D01*
X15485896Y-11424650D02*
X15504944Y-11434174D01*
X15504944Y-11434174D02*
X15514468Y-11453222D01*
X15514468Y-11453222D02*
X15514468Y-11472269D01*
X15514468Y-11472269D02*
X15419230Y-11491317D01*
X15590658Y-11548460D02*
X15609706Y-11557984D01*
X15609706Y-11557984D02*
X15647801Y-11557984D01*
X15647801Y-11557984D02*
X15666849Y-11548460D01*
X15666849Y-11548460D02*
X15676372Y-11529412D01*
X15676372Y-11529412D02*
X15676372Y-11519888D01*
X15676372Y-11519888D02*
X15666849Y-11500841D01*
X15666849Y-11500841D02*
X15647801Y-11491317D01*
X15647801Y-11491317D02*
X15619230Y-11491317D01*
X15619230Y-11491317D02*
X15600182Y-11481793D01*
X15600182Y-11481793D02*
X15590658Y-11462746D01*
X15590658Y-11462746D02*
X15590658Y-11453222D01*
X15590658Y-11453222D02*
X15600182Y-11434174D01*
X15600182Y-11434174D02*
X15619230Y-11424650D01*
X15619230Y-11424650D02*
X15647801Y-11424650D01*
X15647801Y-11424650D02*
X15666849Y-11434174D01*
X15743039Y-11634174D02*
X15752563Y-11624650D01*
X15752563Y-11624650D02*
X15771611Y-11596079D01*
X15771611Y-11596079D02*
X15781134Y-11577031D01*
X15781134Y-11577031D02*
X15790658Y-11548460D01*
X15790658Y-11548460D02*
X15800182Y-11500841D01*
X15800182Y-11500841D02*
X15800182Y-11462746D01*
X15800182Y-11462746D02*
X15790658Y-11415127D01*
X15790658Y-11415127D02*
X15781134Y-11386555D01*
X15781134Y-11386555D02*
X15771611Y-11367508D01*
X15771611Y-11367508D02*
X15752563Y-11338936D01*
X15752563Y-11338936D02*
X15743039Y-11329412D01*
D12*
X10732500Y-11685500D02*
X10732500Y-11775500D01*
X10687500Y-11730500D02*
X10777500Y-11730500D01*
D11*
X11076372Y-11621984D02*
X11095420Y-11621984D01*
X11095420Y-11621984D02*
X11114467Y-11631508D01*
X11114467Y-11631508D02*
X11123991Y-11641031D01*
X11123991Y-11641031D02*
X11133515Y-11660079D01*
X11133515Y-11660079D02*
X11143039Y-11698174D01*
X11143039Y-11698174D02*
X11143039Y-11745793D01*
X11143039Y-11745793D02*
X11133515Y-11783888D01*
X11133515Y-11783888D02*
X11123991Y-11802936D01*
X11123991Y-11802936D02*
X11114467Y-11812460D01*
X11114467Y-11812460D02*
X11095420Y-11821984D01*
X11095420Y-11821984D02*
X11076372Y-11821984D01*
X11076372Y-11821984D02*
X11057324Y-11812460D01*
X11057324Y-11812460D02*
X11047801Y-11802936D01*
X11047801Y-11802936D02*
X11038277Y-11783888D01*
X11038277Y-11783888D02*
X11028753Y-11745793D01*
X11028753Y-11745793D02*
X11028753Y-11698174D01*
X11028753Y-11698174D02*
X11038277Y-11660079D01*
X11038277Y-11660079D02*
X11047801Y-11641031D01*
X11047801Y-11641031D02*
X11057324Y-11631508D01*
X11057324Y-11631508D02*
X11076372Y-11621984D01*
X11228753Y-11802936D02*
X11238277Y-11812460D01*
X11238277Y-11812460D02*
X11228753Y-11821984D01*
X11228753Y-11821984D02*
X11219229Y-11812460D01*
X11219229Y-11812460D02*
X11228753Y-11802936D01*
X11228753Y-11802936D02*
X11228753Y-11821984D01*
X11333515Y-11821984D02*
X11371610Y-11821984D01*
X11371610Y-11821984D02*
X11390658Y-11812460D01*
X11390658Y-11812460D02*
X11400182Y-11802936D01*
X11400182Y-11802936D02*
X11419229Y-11774365D01*
X11419229Y-11774365D02*
X11428753Y-11736269D01*
X11428753Y-11736269D02*
X11428753Y-11660079D01*
X11428753Y-11660079D02*
X11419229Y-11641031D01*
X11419229Y-11641031D02*
X11409705Y-11631508D01*
X11409705Y-11631508D02*
X11390658Y-11621984D01*
X11390658Y-11621984D02*
X11352562Y-11621984D01*
X11352562Y-11621984D02*
X11333515Y-11631508D01*
X11333515Y-11631508D02*
X11323991Y-11641031D01*
X11323991Y-11641031D02*
X11314467Y-11660079D01*
X11314467Y-11660079D02*
X11314467Y-11707698D01*
X11314467Y-11707698D02*
X11323991Y-11726746D01*
X11323991Y-11726746D02*
X11333515Y-11736269D01*
X11333515Y-11736269D02*
X11352562Y-11745793D01*
X11352562Y-11745793D02*
X11390658Y-11745793D01*
X11390658Y-11745793D02*
X11409705Y-11736269D01*
X11409705Y-11736269D02*
X11419229Y-11726746D01*
X11419229Y-11726746D02*
X11428753Y-11707698D01*
X11552562Y-11621984D02*
X11571610Y-11621984D01*
X11571610Y-11621984D02*
X11590658Y-11631508D01*
X11590658Y-11631508D02*
X11600182Y-11641031D01*
X11600182Y-11641031D02*
X11609705Y-11660079D01*
X11609705Y-11660079D02*
X11619229Y-11698174D01*
X11619229Y-11698174D02*
X11619229Y-11745793D01*
X11619229Y-11745793D02*
X11609705Y-11783888D01*
X11609705Y-11783888D02*
X11600182Y-11802936D01*
X11600182Y-11802936D02*
X11590658Y-11812460D01*
X11590658Y-11812460D02*
X11571610Y-11821984D01*
X11571610Y-11821984D02*
X11552562Y-11821984D01*
X11552562Y-11821984D02*
X11533515Y-11812460D01*
X11533515Y-11812460D02*
X11523991Y-11802936D01*
X11523991Y-11802936D02*
X11514467Y-11783888D01*
X11514467Y-11783888D02*
X11504943Y-11745793D01*
X11504943Y-11745793D02*
X11504943Y-11698174D01*
X11504943Y-11698174D02*
X11514467Y-11660079D01*
X11514467Y-11660079D02*
X11523991Y-11641031D01*
X11523991Y-11641031D02*
X11533515Y-11631508D01*
X11533515Y-11631508D02*
X11552562Y-11621984D01*
X11743039Y-11621984D02*
X11762086Y-11621984D01*
X11762086Y-11621984D02*
X11781134Y-11631508D01*
X11781134Y-11631508D02*
X11790658Y-11641031D01*
X11790658Y-11641031D02*
X11800182Y-11660079D01*
X11800182Y-11660079D02*
X11809705Y-11698174D01*
X11809705Y-11698174D02*
X11809705Y-11745793D01*
X11809705Y-11745793D02*
X11800182Y-11783888D01*
X11800182Y-11783888D02*
X11790658Y-11802936D01*
X11790658Y-11802936D02*
X11781134Y-11812460D01*
X11781134Y-11812460D02*
X11762086Y-11821984D01*
X11762086Y-11821984D02*
X11743039Y-11821984D01*
X11743039Y-11821984D02*
X11723991Y-11812460D01*
X11723991Y-11812460D02*
X11714467Y-11802936D01*
X11714467Y-11802936D02*
X11704943Y-11783888D01*
X11704943Y-11783888D02*
X11695420Y-11745793D01*
X11695420Y-11745793D02*
X11695420Y-11698174D01*
X11695420Y-11698174D02*
X11704943Y-11660079D01*
X11704943Y-11660079D02*
X11714467Y-11641031D01*
X11714467Y-11641031D02*
X11723991Y-11631508D01*
X11723991Y-11631508D02*
X11743039Y-11621984D01*
X11895420Y-11821984D02*
X11895420Y-11688650D01*
X11895420Y-11707698D02*
X11904943Y-11698174D01*
X11904943Y-11698174D02*
X11923991Y-11688650D01*
X11923991Y-11688650D02*
X11952563Y-11688650D01*
X11952563Y-11688650D02*
X11971610Y-11698174D01*
X11971610Y-11698174D02*
X11981134Y-11717222D01*
X11981134Y-11717222D02*
X11981134Y-11821984D01*
X11981134Y-11717222D02*
X11990658Y-11698174D01*
X11990658Y-11698174D02*
X12009705Y-11688650D01*
X12009705Y-11688650D02*
X12038277Y-11688650D01*
X12038277Y-11688650D02*
X12057324Y-11698174D01*
X12057324Y-11698174D02*
X12066848Y-11717222D01*
X12066848Y-11717222D02*
X12066848Y-11821984D01*
X12162086Y-11821984D02*
X12162086Y-11688650D01*
X12162086Y-11707698D02*
X12171610Y-11698174D01*
X12171610Y-11698174D02*
X12190658Y-11688650D01*
X12190658Y-11688650D02*
X12219229Y-11688650D01*
X12219229Y-11688650D02*
X12238277Y-11698174D01*
X12238277Y-11698174D02*
X12247801Y-11717222D01*
X12247801Y-11717222D02*
X12247801Y-11821984D01*
X12247801Y-11717222D02*
X12257324Y-11698174D01*
X12257324Y-11698174D02*
X12276372Y-11688650D01*
X12276372Y-11688650D02*
X12304943Y-11688650D01*
X12304943Y-11688650D02*
X12323991Y-11698174D01*
X12323991Y-11698174D02*
X12333515Y-11717222D01*
X12333515Y-11717222D02*
X12333515Y-11821984D01*
X12723991Y-11612460D02*
X12552563Y-11869603D01*
X12981134Y-11621984D02*
X13000182Y-11621984D01*
X13000182Y-11621984D02*
X13019229Y-11631508D01*
X13019229Y-11631508D02*
X13028753Y-11641031D01*
X13028753Y-11641031D02*
X13038277Y-11660079D01*
X13038277Y-11660079D02*
X13047801Y-11698174D01*
X13047801Y-11698174D02*
X13047801Y-11745793D01*
X13047801Y-11745793D02*
X13038277Y-11783888D01*
X13038277Y-11783888D02*
X13028753Y-11802936D01*
X13028753Y-11802936D02*
X13019229Y-11812460D01*
X13019229Y-11812460D02*
X13000182Y-11821984D01*
X13000182Y-11821984D02*
X12981134Y-11821984D01*
X12981134Y-11821984D02*
X12962086Y-11812460D01*
X12962086Y-11812460D02*
X12952563Y-11802936D01*
X12952563Y-11802936D02*
X12943039Y-11783888D01*
X12943039Y-11783888D02*
X12933515Y-11745793D01*
X12933515Y-11745793D02*
X12933515Y-11698174D01*
X12933515Y-11698174D02*
X12943039Y-11660079D01*
X12943039Y-11660079D02*
X12952563Y-11641031D01*
X12952563Y-11641031D02*
X12962086Y-11631508D01*
X12962086Y-11631508D02*
X12981134Y-11621984D01*
X13133515Y-11802936D02*
X13143039Y-11812460D01*
X13143039Y-11812460D02*
X13133515Y-11821984D01*
X13133515Y-11821984D02*
X13123991Y-11812460D01*
X13123991Y-11812460D02*
X13133515Y-11802936D01*
X13133515Y-11802936D02*
X13133515Y-11821984D01*
X13266848Y-11621984D02*
X13285896Y-11621984D01*
X13285896Y-11621984D02*
X13304944Y-11631508D01*
X13304944Y-11631508D02*
X13314467Y-11641031D01*
X13314467Y-11641031D02*
X13323991Y-11660079D01*
X13323991Y-11660079D02*
X13333515Y-11698174D01*
X13333515Y-11698174D02*
X13333515Y-11745793D01*
X13333515Y-11745793D02*
X13323991Y-11783888D01*
X13323991Y-11783888D02*
X13314467Y-11802936D01*
X13314467Y-11802936D02*
X13304944Y-11812460D01*
X13304944Y-11812460D02*
X13285896Y-11821984D01*
X13285896Y-11821984D02*
X13266848Y-11821984D01*
X13266848Y-11821984D02*
X13247801Y-11812460D01*
X13247801Y-11812460D02*
X13238277Y-11802936D01*
X13238277Y-11802936D02*
X13228753Y-11783888D01*
X13228753Y-11783888D02*
X13219229Y-11745793D01*
X13219229Y-11745793D02*
X13219229Y-11698174D01*
X13219229Y-11698174D02*
X13228753Y-11660079D01*
X13228753Y-11660079D02*
X13238277Y-11641031D01*
X13238277Y-11641031D02*
X13247801Y-11631508D01*
X13247801Y-11631508D02*
X13266848Y-11621984D01*
X13400182Y-11621984D02*
X13523991Y-11621984D01*
X13523991Y-11621984D02*
X13457325Y-11698174D01*
X13457325Y-11698174D02*
X13485896Y-11698174D01*
X13485896Y-11698174D02*
X13504944Y-11707698D01*
X13504944Y-11707698D02*
X13514467Y-11717222D01*
X13514467Y-11717222D02*
X13523991Y-11736269D01*
X13523991Y-11736269D02*
X13523991Y-11783888D01*
X13523991Y-11783888D02*
X13514467Y-11802936D01*
X13514467Y-11802936D02*
X13504944Y-11812460D01*
X13504944Y-11812460D02*
X13485896Y-11821984D01*
X13485896Y-11821984D02*
X13428753Y-11821984D01*
X13428753Y-11821984D02*
X13409706Y-11812460D01*
X13409706Y-11812460D02*
X13400182Y-11802936D01*
X13704944Y-11621984D02*
X13609706Y-11621984D01*
X13609706Y-11621984D02*
X13600182Y-11717222D01*
X13600182Y-11717222D02*
X13609706Y-11707698D01*
X13609706Y-11707698D02*
X13628753Y-11698174D01*
X13628753Y-11698174D02*
X13676372Y-11698174D01*
X13676372Y-11698174D02*
X13695420Y-11707698D01*
X13695420Y-11707698D02*
X13704944Y-11717222D01*
X13704944Y-11717222D02*
X13714467Y-11736269D01*
X13714467Y-11736269D02*
X13714467Y-11783888D01*
X13714467Y-11783888D02*
X13704944Y-11802936D01*
X13704944Y-11802936D02*
X13695420Y-11812460D01*
X13695420Y-11812460D02*
X13676372Y-11821984D01*
X13676372Y-11821984D02*
X13628753Y-11821984D01*
X13628753Y-11821984D02*
X13609706Y-11812460D01*
X13609706Y-11812460D02*
X13600182Y-11802936D01*
X13885896Y-11688650D02*
X13885896Y-11821984D01*
X13838277Y-11612460D02*
X13790658Y-11755317D01*
X13790658Y-11755317D02*
X13914467Y-11755317D01*
X13981134Y-11621984D02*
X13981134Y-11660079D01*
X14057325Y-11621984D02*
X14057325Y-11660079D01*
X14352563Y-11898174D02*
X14343039Y-11888650D01*
X14343039Y-11888650D02*
X14323991Y-11860079D01*
X14323991Y-11860079D02*
X14314468Y-11841031D01*
X14314468Y-11841031D02*
X14304944Y-11812460D01*
X14304944Y-11812460D02*
X14295420Y-11764841D01*
X14295420Y-11764841D02*
X14295420Y-11726746D01*
X14295420Y-11726746D02*
X14304944Y-11679127D01*
X14304944Y-11679127D02*
X14314468Y-11650555D01*
X14314468Y-11650555D02*
X14323991Y-11631508D01*
X14323991Y-11631508D02*
X14343039Y-11602936D01*
X14343039Y-11602936D02*
X14352563Y-11593412D01*
X14533515Y-11821984D02*
X14419229Y-11821984D01*
X14476372Y-11821984D02*
X14476372Y-11621984D01*
X14476372Y-11621984D02*
X14457325Y-11650555D01*
X14457325Y-11650555D02*
X14438277Y-11669603D01*
X14438277Y-11669603D02*
X14419229Y-11679127D01*
X14704944Y-11621984D02*
X14666848Y-11621984D01*
X14666848Y-11621984D02*
X14647801Y-11631508D01*
X14647801Y-11631508D02*
X14638277Y-11641031D01*
X14638277Y-11641031D02*
X14619229Y-11669603D01*
X14619229Y-11669603D02*
X14609706Y-11707698D01*
X14609706Y-11707698D02*
X14609706Y-11783888D01*
X14609706Y-11783888D02*
X14619229Y-11802936D01*
X14619229Y-11802936D02*
X14628753Y-11812460D01*
X14628753Y-11812460D02*
X14647801Y-11821984D01*
X14647801Y-11821984D02*
X14685896Y-11821984D01*
X14685896Y-11821984D02*
X14704944Y-11812460D01*
X14704944Y-11812460D02*
X14714468Y-11802936D01*
X14714468Y-11802936D02*
X14723991Y-11783888D01*
X14723991Y-11783888D02*
X14723991Y-11736269D01*
X14723991Y-11736269D02*
X14714468Y-11717222D01*
X14714468Y-11717222D02*
X14704944Y-11707698D01*
X14704944Y-11707698D02*
X14685896Y-11698174D01*
X14685896Y-11698174D02*
X14647801Y-11698174D01*
X14647801Y-11698174D02*
X14628753Y-11707698D01*
X14628753Y-11707698D02*
X14619229Y-11717222D01*
X14619229Y-11717222D02*
X14609706Y-11736269D01*
X14962087Y-11821984D02*
X14962087Y-11621984D01*
X15047801Y-11821984D02*
X15047801Y-11717222D01*
X15047801Y-11717222D02*
X15038277Y-11698174D01*
X15038277Y-11698174D02*
X15019230Y-11688650D01*
X15019230Y-11688650D02*
X14990658Y-11688650D01*
X14990658Y-11688650D02*
X14971610Y-11698174D01*
X14971610Y-11698174D02*
X14962087Y-11707698D01*
X15171610Y-11821984D02*
X15152563Y-11812460D01*
X15152563Y-11812460D02*
X15143039Y-11802936D01*
X15143039Y-11802936D02*
X15133515Y-11783888D01*
X15133515Y-11783888D02*
X15133515Y-11726746D01*
X15133515Y-11726746D02*
X15143039Y-11707698D01*
X15143039Y-11707698D02*
X15152563Y-11698174D01*
X15152563Y-11698174D02*
X15171610Y-11688650D01*
X15171610Y-11688650D02*
X15200182Y-11688650D01*
X15200182Y-11688650D02*
X15219230Y-11698174D01*
X15219230Y-11698174D02*
X15228753Y-11707698D01*
X15228753Y-11707698D02*
X15238277Y-11726746D01*
X15238277Y-11726746D02*
X15238277Y-11783888D01*
X15238277Y-11783888D02*
X15228753Y-11802936D01*
X15228753Y-11802936D02*
X15219230Y-11812460D01*
X15219230Y-11812460D02*
X15200182Y-11821984D01*
X15200182Y-11821984D02*
X15171610Y-11821984D01*
X15352563Y-11821984D02*
X15333515Y-11812460D01*
X15333515Y-11812460D02*
X15323991Y-11793412D01*
X15323991Y-11793412D02*
X15323991Y-11621984D01*
X15504944Y-11812460D02*
X15485896Y-11821984D01*
X15485896Y-11821984D02*
X15447801Y-11821984D01*
X15447801Y-11821984D02*
X15428753Y-11812460D01*
X15428753Y-11812460D02*
X15419230Y-11793412D01*
X15419230Y-11793412D02*
X15419230Y-11717222D01*
X15419230Y-11717222D02*
X15428753Y-11698174D01*
X15428753Y-11698174D02*
X15447801Y-11688650D01*
X15447801Y-11688650D02*
X15485896Y-11688650D01*
X15485896Y-11688650D02*
X15504944Y-11698174D01*
X15504944Y-11698174D02*
X15514468Y-11717222D01*
X15514468Y-11717222D02*
X15514468Y-11736269D01*
X15514468Y-11736269D02*
X15419230Y-11755317D01*
X15590658Y-11812460D02*
X15609706Y-11821984D01*
X15609706Y-11821984D02*
X15647801Y-11821984D01*
X15647801Y-11821984D02*
X15666849Y-11812460D01*
X15666849Y-11812460D02*
X15676372Y-11793412D01*
X15676372Y-11793412D02*
X15676372Y-11783888D01*
X15676372Y-11783888D02*
X15666849Y-11764841D01*
X15666849Y-11764841D02*
X15647801Y-11755317D01*
X15647801Y-11755317D02*
X15619230Y-11755317D01*
X15619230Y-11755317D02*
X15600182Y-11745793D01*
X15600182Y-11745793D02*
X15590658Y-11726746D01*
X15590658Y-11726746D02*
X15590658Y-11717222D01*
X15590658Y-11717222D02*
X15600182Y-11698174D01*
X15600182Y-11698174D02*
X15619230Y-11688650D01*
X15619230Y-11688650D02*
X15647801Y-11688650D01*
X15647801Y-11688650D02*
X15666849Y-11698174D01*
X15743039Y-11898174D02*
X15752563Y-11888650D01*
X15752563Y-11888650D02*
X15771611Y-11860079D01*
X15771611Y-11860079D02*
X15781134Y-11841031D01*
X15781134Y-11841031D02*
X15790658Y-11812460D01*
X15790658Y-11812460D02*
X15800182Y-11764841D01*
X15800182Y-11764841D02*
X15800182Y-11726746D01*
X15800182Y-11726746D02*
X15790658Y-11679127D01*
X15790658Y-11679127D02*
X15781134Y-11650555D01*
X15781134Y-11650555D02*
X15771611Y-11631508D01*
X15771611Y-11631508D02*
X15752563Y-11602936D01*
X15752563Y-11602936D02*
X15743039Y-11593412D01*
D12*
X10762856Y-12029856D02*
X10762856Y-11959144D01*
X10692144Y-11959144D01*
X10692144Y-12029856D01*
X10762856Y-12029856D01*
D11*
X11143039Y-12085984D02*
X11028753Y-12085984D01*
X11085896Y-12085984D02*
X11085896Y-11885984D01*
X11085896Y-11885984D02*
X11066848Y-11914555D01*
X11066848Y-11914555D02*
X11047801Y-11933603D01*
X11047801Y-11933603D02*
X11028753Y-11943127D01*
X11228753Y-12066936D02*
X11238277Y-12076460D01*
X11238277Y-12076460D02*
X11228753Y-12085984D01*
X11228753Y-12085984D02*
X11219229Y-12076460D01*
X11219229Y-12076460D02*
X11228753Y-12066936D01*
X11228753Y-12066936D02*
X11228753Y-12085984D01*
X11362086Y-11885984D02*
X11381134Y-11885984D01*
X11381134Y-11885984D02*
X11400182Y-11895508D01*
X11400182Y-11895508D02*
X11409705Y-11905031D01*
X11409705Y-11905031D02*
X11419229Y-11924079D01*
X11419229Y-11924079D02*
X11428753Y-11962174D01*
X11428753Y-11962174D02*
X11428753Y-12009793D01*
X11428753Y-12009793D02*
X11419229Y-12047888D01*
X11419229Y-12047888D02*
X11409705Y-12066936D01*
X11409705Y-12066936D02*
X11400182Y-12076460D01*
X11400182Y-12076460D02*
X11381134Y-12085984D01*
X11381134Y-12085984D02*
X11362086Y-12085984D01*
X11362086Y-12085984D02*
X11343039Y-12076460D01*
X11343039Y-12076460D02*
X11333515Y-12066936D01*
X11333515Y-12066936D02*
X11323991Y-12047888D01*
X11323991Y-12047888D02*
X11314467Y-12009793D01*
X11314467Y-12009793D02*
X11314467Y-11962174D01*
X11314467Y-11962174D02*
X11323991Y-11924079D01*
X11323991Y-11924079D02*
X11333515Y-11905031D01*
X11333515Y-11905031D02*
X11343039Y-11895508D01*
X11343039Y-11895508D02*
X11362086Y-11885984D01*
X11552562Y-11885984D02*
X11571610Y-11885984D01*
X11571610Y-11885984D02*
X11590658Y-11895508D01*
X11590658Y-11895508D02*
X11600182Y-11905031D01*
X11600182Y-11905031D02*
X11609705Y-11924079D01*
X11609705Y-11924079D02*
X11619229Y-11962174D01*
X11619229Y-11962174D02*
X11619229Y-12009793D01*
X11619229Y-12009793D02*
X11609705Y-12047888D01*
X11609705Y-12047888D02*
X11600182Y-12066936D01*
X11600182Y-12066936D02*
X11590658Y-12076460D01*
X11590658Y-12076460D02*
X11571610Y-12085984D01*
X11571610Y-12085984D02*
X11552562Y-12085984D01*
X11552562Y-12085984D02*
X11533515Y-12076460D01*
X11533515Y-12076460D02*
X11523991Y-12066936D01*
X11523991Y-12066936D02*
X11514467Y-12047888D01*
X11514467Y-12047888D02*
X11504943Y-12009793D01*
X11504943Y-12009793D02*
X11504943Y-11962174D01*
X11504943Y-11962174D02*
X11514467Y-11924079D01*
X11514467Y-11924079D02*
X11523991Y-11905031D01*
X11523991Y-11905031D02*
X11533515Y-11895508D01*
X11533515Y-11895508D02*
X11552562Y-11885984D01*
X11743039Y-11885984D02*
X11762086Y-11885984D01*
X11762086Y-11885984D02*
X11781134Y-11895508D01*
X11781134Y-11895508D02*
X11790658Y-11905031D01*
X11790658Y-11905031D02*
X11800182Y-11924079D01*
X11800182Y-11924079D02*
X11809705Y-11962174D01*
X11809705Y-11962174D02*
X11809705Y-12009793D01*
X11809705Y-12009793D02*
X11800182Y-12047888D01*
X11800182Y-12047888D02*
X11790658Y-12066936D01*
X11790658Y-12066936D02*
X11781134Y-12076460D01*
X11781134Y-12076460D02*
X11762086Y-12085984D01*
X11762086Y-12085984D02*
X11743039Y-12085984D01*
X11743039Y-12085984D02*
X11723991Y-12076460D01*
X11723991Y-12076460D02*
X11714467Y-12066936D01*
X11714467Y-12066936D02*
X11704943Y-12047888D01*
X11704943Y-12047888D02*
X11695420Y-12009793D01*
X11695420Y-12009793D02*
X11695420Y-11962174D01*
X11695420Y-11962174D02*
X11704943Y-11924079D01*
X11704943Y-11924079D02*
X11714467Y-11905031D01*
X11714467Y-11905031D02*
X11723991Y-11895508D01*
X11723991Y-11895508D02*
X11743039Y-11885984D01*
X11895420Y-12085984D02*
X11895420Y-11952650D01*
X11895420Y-11971698D02*
X11904943Y-11962174D01*
X11904943Y-11962174D02*
X11923991Y-11952650D01*
X11923991Y-11952650D02*
X11952563Y-11952650D01*
X11952563Y-11952650D02*
X11971610Y-11962174D01*
X11971610Y-11962174D02*
X11981134Y-11981222D01*
X11981134Y-11981222D02*
X11981134Y-12085984D01*
X11981134Y-11981222D02*
X11990658Y-11962174D01*
X11990658Y-11962174D02*
X12009705Y-11952650D01*
X12009705Y-11952650D02*
X12038277Y-11952650D01*
X12038277Y-11952650D02*
X12057324Y-11962174D01*
X12057324Y-11962174D02*
X12066848Y-11981222D01*
X12066848Y-11981222D02*
X12066848Y-12085984D01*
X12162086Y-12085984D02*
X12162086Y-11952650D01*
X12162086Y-11971698D02*
X12171610Y-11962174D01*
X12171610Y-11962174D02*
X12190658Y-11952650D01*
X12190658Y-11952650D02*
X12219229Y-11952650D01*
X12219229Y-11952650D02*
X12238277Y-11962174D01*
X12238277Y-11962174D02*
X12247801Y-11981222D01*
X12247801Y-11981222D02*
X12247801Y-12085984D01*
X12247801Y-11981222D02*
X12257324Y-11962174D01*
X12257324Y-11962174D02*
X12276372Y-11952650D01*
X12276372Y-11952650D02*
X12304943Y-11952650D01*
X12304943Y-11952650D02*
X12323991Y-11962174D01*
X12323991Y-11962174D02*
X12333515Y-11981222D01*
X12333515Y-11981222D02*
X12333515Y-12085984D01*
X12723991Y-11876460D02*
X12552563Y-12133603D01*
X12981134Y-11885984D02*
X13000182Y-11885984D01*
X13000182Y-11885984D02*
X13019229Y-11895508D01*
X13019229Y-11895508D02*
X13028753Y-11905031D01*
X13028753Y-11905031D02*
X13038277Y-11924079D01*
X13038277Y-11924079D02*
X13047801Y-11962174D01*
X13047801Y-11962174D02*
X13047801Y-12009793D01*
X13047801Y-12009793D02*
X13038277Y-12047888D01*
X13038277Y-12047888D02*
X13028753Y-12066936D01*
X13028753Y-12066936D02*
X13019229Y-12076460D01*
X13019229Y-12076460D02*
X13000182Y-12085984D01*
X13000182Y-12085984D02*
X12981134Y-12085984D01*
X12981134Y-12085984D02*
X12962086Y-12076460D01*
X12962086Y-12076460D02*
X12952563Y-12066936D01*
X12952563Y-12066936D02*
X12943039Y-12047888D01*
X12943039Y-12047888D02*
X12933515Y-12009793D01*
X12933515Y-12009793D02*
X12933515Y-11962174D01*
X12933515Y-11962174D02*
X12943039Y-11924079D01*
X12943039Y-11924079D02*
X12952563Y-11905031D01*
X12952563Y-11905031D02*
X12962086Y-11895508D01*
X12962086Y-11895508D02*
X12981134Y-11885984D01*
X13133515Y-12066936D02*
X13143039Y-12076460D01*
X13143039Y-12076460D02*
X13133515Y-12085984D01*
X13133515Y-12085984D02*
X13123991Y-12076460D01*
X13123991Y-12076460D02*
X13133515Y-12066936D01*
X13133515Y-12066936D02*
X13133515Y-12085984D01*
X13266848Y-11885984D02*
X13285896Y-11885984D01*
X13285896Y-11885984D02*
X13304944Y-11895508D01*
X13304944Y-11895508D02*
X13314467Y-11905031D01*
X13314467Y-11905031D02*
X13323991Y-11924079D01*
X13323991Y-11924079D02*
X13333515Y-11962174D01*
X13333515Y-11962174D02*
X13333515Y-12009793D01*
X13333515Y-12009793D02*
X13323991Y-12047888D01*
X13323991Y-12047888D02*
X13314467Y-12066936D01*
X13314467Y-12066936D02*
X13304944Y-12076460D01*
X13304944Y-12076460D02*
X13285896Y-12085984D01*
X13285896Y-12085984D02*
X13266848Y-12085984D01*
X13266848Y-12085984D02*
X13247801Y-12076460D01*
X13247801Y-12076460D02*
X13238277Y-12066936D01*
X13238277Y-12066936D02*
X13228753Y-12047888D01*
X13228753Y-12047888D02*
X13219229Y-12009793D01*
X13219229Y-12009793D02*
X13219229Y-11962174D01*
X13219229Y-11962174D02*
X13228753Y-11924079D01*
X13228753Y-11924079D02*
X13238277Y-11905031D01*
X13238277Y-11905031D02*
X13247801Y-11895508D01*
X13247801Y-11895508D02*
X13266848Y-11885984D01*
X13400182Y-11885984D02*
X13523991Y-11885984D01*
X13523991Y-11885984D02*
X13457325Y-11962174D01*
X13457325Y-11962174D02*
X13485896Y-11962174D01*
X13485896Y-11962174D02*
X13504944Y-11971698D01*
X13504944Y-11971698D02*
X13514467Y-11981222D01*
X13514467Y-11981222D02*
X13523991Y-12000269D01*
X13523991Y-12000269D02*
X13523991Y-12047888D01*
X13523991Y-12047888D02*
X13514467Y-12066936D01*
X13514467Y-12066936D02*
X13504944Y-12076460D01*
X13504944Y-12076460D02*
X13485896Y-12085984D01*
X13485896Y-12085984D02*
X13428753Y-12085984D01*
X13428753Y-12085984D02*
X13409706Y-12076460D01*
X13409706Y-12076460D02*
X13400182Y-12066936D01*
X13619229Y-12085984D02*
X13657325Y-12085984D01*
X13657325Y-12085984D02*
X13676372Y-12076460D01*
X13676372Y-12076460D02*
X13685896Y-12066936D01*
X13685896Y-12066936D02*
X13704944Y-12038365D01*
X13704944Y-12038365D02*
X13714467Y-12000269D01*
X13714467Y-12000269D02*
X13714467Y-11924079D01*
X13714467Y-11924079D02*
X13704944Y-11905031D01*
X13704944Y-11905031D02*
X13695420Y-11895508D01*
X13695420Y-11895508D02*
X13676372Y-11885984D01*
X13676372Y-11885984D02*
X13638277Y-11885984D01*
X13638277Y-11885984D02*
X13619229Y-11895508D01*
X13619229Y-11895508D02*
X13609706Y-11905031D01*
X13609706Y-11905031D02*
X13600182Y-11924079D01*
X13600182Y-11924079D02*
X13600182Y-11971698D01*
X13600182Y-11971698D02*
X13609706Y-11990746D01*
X13609706Y-11990746D02*
X13619229Y-12000269D01*
X13619229Y-12000269D02*
X13638277Y-12009793D01*
X13638277Y-12009793D02*
X13676372Y-12009793D01*
X13676372Y-12009793D02*
X13695420Y-12000269D01*
X13695420Y-12000269D02*
X13704944Y-11990746D01*
X13704944Y-11990746D02*
X13714467Y-11971698D01*
X13885896Y-11952650D02*
X13885896Y-12085984D01*
X13838277Y-11876460D02*
X13790658Y-12019317D01*
X13790658Y-12019317D02*
X13914467Y-12019317D01*
X13981134Y-11885984D02*
X13981134Y-11924079D01*
X14057325Y-11885984D02*
X14057325Y-11924079D01*
X14352563Y-12162174D02*
X14343039Y-12152650D01*
X14343039Y-12152650D02*
X14323991Y-12124079D01*
X14323991Y-12124079D02*
X14314468Y-12105031D01*
X14314468Y-12105031D02*
X14304944Y-12076460D01*
X14304944Y-12076460D02*
X14295420Y-12028841D01*
X14295420Y-12028841D02*
X14295420Y-11990746D01*
X14295420Y-11990746D02*
X14304944Y-11943127D01*
X14304944Y-11943127D02*
X14314468Y-11914555D01*
X14314468Y-11914555D02*
X14323991Y-11895508D01*
X14323991Y-11895508D02*
X14343039Y-11866936D01*
X14343039Y-11866936D02*
X14352563Y-11857412D01*
X14419229Y-11905031D02*
X14428753Y-11895508D01*
X14428753Y-11895508D02*
X14447801Y-11885984D01*
X14447801Y-11885984D02*
X14495420Y-11885984D01*
X14495420Y-11885984D02*
X14514468Y-11895508D01*
X14514468Y-11895508D02*
X14523991Y-11905031D01*
X14523991Y-11905031D02*
X14533515Y-11924079D01*
X14533515Y-11924079D02*
X14533515Y-11943127D01*
X14533515Y-11943127D02*
X14523991Y-11971698D01*
X14523991Y-11971698D02*
X14409706Y-12085984D01*
X14409706Y-12085984D02*
X14533515Y-12085984D01*
X14704944Y-11952650D02*
X14704944Y-12085984D01*
X14657325Y-11876460D02*
X14609706Y-12019317D01*
X14609706Y-12019317D02*
X14733515Y-12019317D01*
X14962087Y-12085984D02*
X14962087Y-11885984D01*
X15047801Y-12085984D02*
X15047801Y-11981222D01*
X15047801Y-11981222D02*
X15038277Y-11962174D01*
X15038277Y-11962174D02*
X15019230Y-11952650D01*
X15019230Y-11952650D02*
X14990658Y-11952650D01*
X14990658Y-11952650D02*
X14971610Y-11962174D01*
X14971610Y-11962174D02*
X14962087Y-11971698D01*
X15171610Y-12085984D02*
X15152563Y-12076460D01*
X15152563Y-12076460D02*
X15143039Y-12066936D01*
X15143039Y-12066936D02*
X15133515Y-12047888D01*
X15133515Y-12047888D02*
X15133515Y-11990746D01*
X15133515Y-11990746D02*
X15143039Y-11971698D01*
X15143039Y-11971698D02*
X15152563Y-11962174D01*
X15152563Y-11962174D02*
X15171610Y-11952650D01*
X15171610Y-11952650D02*
X15200182Y-11952650D01*
X15200182Y-11952650D02*
X15219230Y-11962174D01*
X15219230Y-11962174D02*
X15228753Y-11971698D01*
X15228753Y-11971698D02*
X15238277Y-11990746D01*
X15238277Y-11990746D02*
X15238277Y-12047888D01*
X15238277Y-12047888D02*
X15228753Y-12066936D01*
X15228753Y-12066936D02*
X15219230Y-12076460D01*
X15219230Y-12076460D02*
X15200182Y-12085984D01*
X15200182Y-12085984D02*
X15171610Y-12085984D01*
X15352563Y-12085984D02*
X15333515Y-12076460D01*
X15333515Y-12076460D02*
X15323991Y-12057412D01*
X15323991Y-12057412D02*
X15323991Y-11885984D01*
X15504944Y-12076460D02*
X15485896Y-12085984D01*
X15485896Y-12085984D02*
X15447801Y-12085984D01*
X15447801Y-12085984D02*
X15428753Y-12076460D01*
X15428753Y-12076460D02*
X15419230Y-12057412D01*
X15419230Y-12057412D02*
X15419230Y-11981222D01*
X15419230Y-11981222D02*
X15428753Y-11962174D01*
X15428753Y-11962174D02*
X15447801Y-11952650D01*
X15447801Y-11952650D02*
X15485896Y-11952650D01*
X15485896Y-11952650D02*
X15504944Y-11962174D01*
X15504944Y-11962174D02*
X15514468Y-11981222D01*
X15514468Y-11981222D02*
X15514468Y-12000269D01*
X15514468Y-12000269D02*
X15419230Y-12019317D01*
X15590658Y-12076460D02*
X15609706Y-12085984D01*
X15609706Y-12085984D02*
X15647801Y-12085984D01*
X15647801Y-12085984D02*
X15666849Y-12076460D01*
X15666849Y-12076460D02*
X15676372Y-12057412D01*
X15676372Y-12057412D02*
X15676372Y-12047888D01*
X15676372Y-12047888D02*
X15666849Y-12028841D01*
X15666849Y-12028841D02*
X15647801Y-12019317D01*
X15647801Y-12019317D02*
X15619230Y-12019317D01*
X15619230Y-12019317D02*
X15600182Y-12009793D01*
X15600182Y-12009793D02*
X15590658Y-11990746D01*
X15590658Y-11990746D02*
X15590658Y-11981222D01*
X15590658Y-11981222D02*
X15600182Y-11962174D01*
X15600182Y-11962174D02*
X15619230Y-11952650D01*
X15619230Y-11952650D02*
X15647801Y-11952650D01*
X15647801Y-11952650D02*
X15666849Y-11962174D01*
X15743039Y-12162174D02*
X15752563Y-12152650D01*
X15752563Y-12152650D02*
X15771611Y-12124079D01*
X15771611Y-12124079D02*
X15781134Y-12105031D01*
X15781134Y-12105031D02*
X15790658Y-12076460D01*
X15790658Y-12076460D02*
X15800182Y-12028841D01*
X15800182Y-12028841D02*
X15800182Y-11990746D01*
X15800182Y-11990746D02*
X15790658Y-11943127D01*
X15790658Y-11943127D02*
X15781134Y-11914555D01*
X15781134Y-11914555D02*
X15771611Y-11895508D01*
X15771611Y-11895508D02*
X15752563Y-11866936D01*
X15752563Y-11866936D02*
X15743039Y-11857412D01*
D13*
X10717500Y-12318500D02*
X10777500Y-12258500D01*
X10717500Y-12198500D01*
X10657500Y-12258500D01*
X10717500Y-12318500D01*
D11*
X11143039Y-12349984D02*
X11028753Y-12349984D01*
X11085896Y-12349984D02*
X11085896Y-12149984D01*
X11085896Y-12149984D02*
X11066848Y-12178555D01*
X11066848Y-12178555D02*
X11047801Y-12197603D01*
X11047801Y-12197603D02*
X11028753Y-12207127D01*
X11228753Y-12330936D02*
X11238277Y-12340460D01*
X11238277Y-12340460D02*
X11228753Y-12349984D01*
X11228753Y-12349984D02*
X11219229Y-12340460D01*
X11219229Y-12340460D02*
X11228753Y-12330936D01*
X11228753Y-12330936D02*
X11228753Y-12349984D01*
X11314467Y-12169031D02*
X11323991Y-12159508D01*
X11323991Y-12159508D02*
X11343039Y-12149984D01*
X11343039Y-12149984D02*
X11390658Y-12149984D01*
X11390658Y-12149984D02*
X11409705Y-12159508D01*
X11409705Y-12159508D02*
X11419229Y-12169031D01*
X11419229Y-12169031D02*
X11428753Y-12188079D01*
X11428753Y-12188079D02*
X11428753Y-12207127D01*
X11428753Y-12207127D02*
X11419229Y-12235698D01*
X11419229Y-12235698D02*
X11304943Y-12349984D01*
X11304943Y-12349984D02*
X11428753Y-12349984D01*
X11552562Y-12149984D02*
X11571610Y-12149984D01*
X11571610Y-12149984D02*
X11590658Y-12159508D01*
X11590658Y-12159508D02*
X11600182Y-12169031D01*
X11600182Y-12169031D02*
X11609705Y-12188079D01*
X11609705Y-12188079D02*
X11619229Y-12226174D01*
X11619229Y-12226174D02*
X11619229Y-12273793D01*
X11619229Y-12273793D02*
X11609705Y-12311888D01*
X11609705Y-12311888D02*
X11600182Y-12330936D01*
X11600182Y-12330936D02*
X11590658Y-12340460D01*
X11590658Y-12340460D02*
X11571610Y-12349984D01*
X11571610Y-12349984D02*
X11552562Y-12349984D01*
X11552562Y-12349984D02*
X11533515Y-12340460D01*
X11533515Y-12340460D02*
X11523991Y-12330936D01*
X11523991Y-12330936D02*
X11514467Y-12311888D01*
X11514467Y-12311888D02*
X11504943Y-12273793D01*
X11504943Y-12273793D02*
X11504943Y-12226174D01*
X11504943Y-12226174D02*
X11514467Y-12188079D01*
X11514467Y-12188079D02*
X11523991Y-12169031D01*
X11523991Y-12169031D02*
X11533515Y-12159508D01*
X11533515Y-12159508D02*
X11552562Y-12149984D01*
X11743039Y-12149984D02*
X11762086Y-12149984D01*
X11762086Y-12149984D02*
X11781134Y-12159508D01*
X11781134Y-12159508D02*
X11790658Y-12169031D01*
X11790658Y-12169031D02*
X11800182Y-12188079D01*
X11800182Y-12188079D02*
X11809705Y-12226174D01*
X11809705Y-12226174D02*
X11809705Y-12273793D01*
X11809705Y-12273793D02*
X11800182Y-12311888D01*
X11800182Y-12311888D02*
X11790658Y-12330936D01*
X11790658Y-12330936D02*
X11781134Y-12340460D01*
X11781134Y-12340460D02*
X11762086Y-12349984D01*
X11762086Y-12349984D02*
X11743039Y-12349984D01*
X11743039Y-12349984D02*
X11723991Y-12340460D01*
X11723991Y-12340460D02*
X11714467Y-12330936D01*
X11714467Y-12330936D02*
X11704943Y-12311888D01*
X11704943Y-12311888D02*
X11695420Y-12273793D01*
X11695420Y-12273793D02*
X11695420Y-12226174D01*
X11695420Y-12226174D02*
X11704943Y-12188079D01*
X11704943Y-12188079D02*
X11714467Y-12169031D01*
X11714467Y-12169031D02*
X11723991Y-12159508D01*
X11723991Y-12159508D02*
X11743039Y-12149984D01*
X11895420Y-12349984D02*
X11895420Y-12216650D01*
X11895420Y-12235698D02*
X11904943Y-12226174D01*
X11904943Y-12226174D02*
X11923991Y-12216650D01*
X11923991Y-12216650D02*
X11952563Y-12216650D01*
X11952563Y-12216650D02*
X11971610Y-12226174D01*
X11971610Y-12226174D02*
X11981134Y-12245222D01*
X11981134Y-12245222D02*
X11981134Y-12349984D01*
X11981134Y-12245222D02*
X11990658Y-12226174D01*
X11990658Y-12226174D02*
X12009705Y-12216650D01*
X12009705Y-12216650D02*
X12038277Y-12216650D01*
X12038277Y-12216650D02*
X12057324Y-12226174D01*
X12057324Y-12226174D02*
X12066848Y-12245222D01*
X12066848Y-12245222D02*
X12066848Y-12349984D01*
X12162086Y-12349984D02*
X12162086Y-12216650D01*
X12162086Y-12235698D02*
X12171610Y-12226174D01*
X12171610Y-12226174D02*
X12190658Y-12216650D01*
X12190658Y-12216650D02*
X12219229Y-12216650D01*
X12219229Y-12216650D02*
X12238277Y-12226174D01*
X12238277Y-12226174D02*
X12247801Y-12245222D01*
X12247801Y-12245222D02*
X12247801Y-12349984D01*
X12247801Y-12245222D02*
X12257324Y-12226174D01*
X12257324Y-12226174D02*
X12276372Y-12216650D01*
X12276372Y-12216650D02*
X12304943Y-12216650D01*
X12304943Y-12216650D02*
X12323991Y-12226174D01*
X12323991Y-12226174D02*
X12333515Y-12245222D01*
X12333515Y-12245222D02*
X12333515Y-12349984D01*
X12723991Y-12140460D02*
X12552563Y-12397603D01*
X12981134Y-12149984D02*
X13000182Y-12149984D01*
X13000182Y-12149984D02*
X13019229Y-12159508D01*
X13019229Y-12159508D02*
X13028753Y-12169031D01*
X13028753Y-12169031D02*
X13038277Y-12188079D01*
X13038277Y-12188079D02*
X13047801Y-12226174D01*
X13047801Y-12226174D02*
X13047801Y-12273793D01*
X13047801Y-12273793D02*
X13038277Y-12311888D01*
X13038277Y-12311888D02*
X13028753Y-12330936D01*
X13028753Y-12330936D02*
X13019229Y-12340460D01*
X13019229Y-12340460D02*
X13000182Y-12349984D01*
X13000182Y-12349984D02*
X12981134Y-12349984D01*
X12981134Y-12349984D02*
X12962086Y-12340460D01*
X12962086Y-12340460D02*
X12952563Y-12330936D01*
X12952563Y-12330936D02*
X12943039Y-12311888D01*
X12943039Y-12311888D02*
X12933515Y-12273793D01*
X12933515Y-12273793D02*
X12933515Y-12226174D01*
X12933515Y-12226174D02*
X12943039Y-12188079D01*
X12943039Y-12188079D02*
X12952563Y-12169031D01*
X12952563Y-12169031D02*
X12962086Y-12159508D01*
X12962086Y-12159508D02*
X12981134Y-12149984D01*
X13133515Y-12330936D02*
X13143039Y-12340460D01*
X13143039Y-12340460D02*
X13133515Y-12349984D01*
X13133515Y-12349984D02*
X13123991Y-12340460D01*
X13123991Y-12340460D02*
X13133515Y-12330936D01*
X13133515Y-12330936D02*
X13133515Y-12349984D01*
X13266848Y-12149984D02*
X13285896Y-12149984D01*
X13285896Y-12149984D02*
X13304944Y-12159508D01*
X13304944Y-12159508D02*
X13314467Y-12169031D01*
X13314467Y-12169031D02*
X13323991Y-12188079D01*
X13323991Y-12188079D02*
X13333515Y-12226174D01*
X13333515Y-12226174D02*
X13333515Y-12273793D01*
X13333515Y-12273793D02*
X13323991Y-12311888D01*
X13323991Y-12311888D02*
X13314467Y-12330936D01*
X13314467Y-12330936D02*
X13304944Y-12340460D01*
X13304944Y-12340460D02*
X13285896Y-12349984D01*
X13285896Y-12349984D02*
X13266848Y-12349984D01*
X13266848Y-12349984D02*
X13247801Y-12340460D01*
X13247801Y-12340460D02*
X13238277Y-12330936D01*
X13238277Y-12330936D02*
X13228753Y-12311888D01*
X13228753Y-12311888D02*
X13219229Y-12273793D01*
X13219229Y-12273793D02*
X13219229Y-12226174D01*
X13219229Y-12226174D02*
X13228753Y-12188079D01*
X13228753Y-12188079D02*
X13238277Y-12169031D01*
X13238277Y-12169031D02*
X13247801Y-12159508D01*
X13247801Y-12159508D02*
X13266848Y-12149984D01*
X13504944Y-12216650D02*
X13504944Y-12349984D01*
X13457325Y-12140460D02*
X13409706Y-12283317D01*
X13409706Y-12283317D02*
X13533515Y-12283317D01*
X13590658Y-12149984D02*
X13723991Y-12149984D01*
X13723991Y-12149984D02*
X13638277Y-12349984D01*
X13790658Y-12169031D02*
X13800182Y-12159508D01*
X13800182Y-12159508D02*
X13819229Y-12149984D01*
X13819229Y-12149984D02*
X13866848Y-12149984D01*
X13866848Y-12149984D02*
X13885896Y-12159508D01*
X13885896Y-12159508D02*
X13895420Y-12169031D01*
X13895420Y-12169031D02*
X13904944Y-12188079D01*
X13904944Y-12188079D02*
X13904944Y-12207127D01*
X13904944Y-12207127D02*
X13895420Y-12235698D01*
X13895420Y-12235698D02*
X13781134Y-12349984D01*
X13781134Y-12349984D02*
X13904944Y-12349984D01*
X13981134Y-12149984D02*
X13981134Y-12188079D01*
X14057325Y-12149984D02*
X14057325Y-12188079D01*
X14352563Y-12426174D02*
X14343039Y-12416650D01*
X14343039Y-12416650D02*
X14323991Y-12388079D01*
X14323991Y-12388079D02*
X14314468Y-12369031D01*
X14314468Y-12369031D02*
X14304944Y-12340460D01*
X14304944Y-12340460D02*
X14295420Y-12292841D01*
X14295420Y-12292841D02*
X14295420Y-12254746D01*
X14295420Y-12254746D02*
X14304944Y-12207127D01*
X14304944Y-12207127D02*
X14314468Y-12178555D01*
X14314468Y-12178555D02*
X14323991Y-12159508D01*
X14323991Y-12159508D02*
X14343039Y-12130936D01*
X14343039Y-12130936D02*
X14352563Y-12121412D01*
X14514468Y-12149984D02*
X14476372Y-12149984D01*
X14476372Y-12149984D02*
X14457325Y-12159508D01*
X14457325Y-12159508D02*
X14447801Y-12169031D01*
X14447801Y-12169031D02*
X14428753Y-12197603D01*
X14428753Y-12197603D02*
X14419229Y-12235698D01*
X14419229Y-12235698D02*
X14419229Y-12311888D01*
X14419229Y-12311888D02*
X14428753Y-12330936D01*
X14428753Y-12330936D02*
X14438277Y-12340460D01*
X14438277Y-12340460D02*
X14457325Y-12349984D01*
X14457325Y-12349984D02*
X14495420Y-12349984D01*
X14495420Y-12349984D02*
X14514468Y-12340460D01*
X14514468Y-12340460D02*
X14523991Y-12330936D01*
X14523991Y-12330936D02*
X14533515Y-12311888D01*
X14533515Y-12311888D02*
X14533515Y-12264269D01*
X14533515Y-12264269D02*
X14523991Y-12245222D01*
X14523991Y-12245222D02*
X14514468Y-12235698D01*
X14514468Y-12235698D02*
X14495420Y-12226174D01*
X14495420Y-12226174D02*
X14457325Y-12226174D01*
X14457325Y-12226174D02*
X14438277Y-12235698D01*
X14438277Y-12235698D02*
X14428753Y-12245222D01*
X14428753Y-12245222D02*
X14419229Y-12264269D01*
X14771610Y-12349984D02*
X14771610Y-12149984D01*
X14857325Y-12349984D02*
X14857325Y-12245222D01*
X14857325Y-12245222D02*
X14847801Y-12226174D01*
X14847801Y-12226174D02*
X14828753Y-12216650D01*
X14828753Y-12216650D02*
X14800182Y-12216650D01*
X14800182Y-12216650D02*
X14781134Y-12226174D01*
X14781134Y-12226174D02*
X14771610Y-12235698D01*
X14981134Y-12349984D02*
X14962087Y-12340460D01*
X14962087Y-12340460D02*
X14952563Y-12330936D01*
X14952563Y-12330936D02*
X14943039Y-12311888D01*
X14943039Y-12311888D02*
X14943039Y-12254746D01*
X14943039Y-12254746D02*
X14952563Y-12235698D01*
X14952563Y-12235698D02*
X14962087Y-12226174D01*
X14962087Y-12226174D02*
X14981134Y-12216650D01*
X14981134Y-12216650D02*
X15009706Y-12216650D01*
X15009706Y-12216650D02*
X15028753Y-12226174D01*
X15028753Y-12226174D02*
X15038277Y-12235698D01*
X15038277Y-12235698D02*
X15047801Y-12254746D01*
X15047801Y-12254746D02*
X15047801Y-12311888D01*
X15047801Y-12311888D02*
X15038277Y-12330936D01*
X15038277Y-12330936D02*
X15028753Y-12340460D01*
X15028753Y-12340460D02*
X15009706Y-12349984D01*
X15009706Y-12349984D02*
X14981134Y-12349984D01*
X15162087Y-12349984D02*
X15143039Y-12340460D01*
X15143039Y-12340460D02*
X15133515Y-12321412D01*
X15133515Y-12321412D02*
X15133515Y-12149984D01*
X15314468Y-12340460D02*
X15295420Y-12349984D01*
X15295420Y-12349984D02*
X15257325Y-12349984D01*
X15257325Y-12349984D02*
X15238277Y-12340460D01*
X15238277Y-12340460D02*
X15228753Y-12321412D01*
X15228753Y-12321412D02*
X15228753Y-12245222D01*
X15228753Y-12245222D02*
X15238277Y-12226174D01*
X15238277Y-12226174D02*
X15257325Y-12216650D01*
X15257325Y-12216650D02*
X15295420Y-12216650D01*
X15295420Y-12216650D02*
X15314468Y-12226174D01*
X15314468Y-12226174D02*
X15323991Y-12245222D01*
X15323991Y-12245222D02*
X15323991Y-12264269D01*
X15323991Y-12264269D02*
X15228753Y-12283317D01*
X15400182Y-12340460D02*
X15419230Y-12349984D01*
X15419230Y-12349984D02*
X15457325Y-12349984D01*
X15457325Y-12349984D02*
X15476372Y-12340460D01*
X15476372Y-12340460D02*
X15485896Y-12321412D01*
X15485896Y-12321412D02*
X15485896Y-12311888D01*
X15485896Y-12311888D02*
X15476372Y-12292841D01*
X15476372Y-12292841D02*
X15457325Y-12283317D01*
X15457325Y-12283317D02*
X15428753Y-12283317D01*
X15428753Y-12283317D02*
X15409706Y-12273793D01*
X15409706Y-12273793D02*
X15400182Y-12254746D01*
X15400182Y-12254746D02*
X15400182Y-12245222D01*
X15400182Y-12245222D02*
X15409706Y-12226174D01*
X15409706Y-12226174D02*
X15428753Y-12216650D01*
X15428753Y-12216650D02*
X15457325Y-12216650D01*
X15457325Y-12216650D02*
X15476372Y-12226174D01*
X15552563Y-12426174D02*
X15562087Y-12416650D01*
X15562087Y-12416650D02*
X15581134Y-12388079D01*
X15581134Y-12388079D02*
X15590658Y-12369031D01*
X15590658Y-12369031D02*
X15600182Y-12340460D01*
X15600182Y-12340460D02*
X15609706Y-12292841D01*
X15609706Y-12292841D02*
X15609706Y-12254746D01*
X15609706Y-12254746D02*
X15600182Y-12207127D01*
X15600182Y-12207127D02*
X15590658Y-12178555D01*
X15590658Y-12178555D02*
X15581134Y-12159508D01*
X15581134Y-12159508D02*
X15562087Y-12130936D01*
X15562087Y-12130936D02*
X15552563Y-12121412D01*
M02*
