M48
; DRILL file {KiCad 8.0.7-8.0.7-0~ubuntu22.04.1} date 2024-12-11T16:36:03+0800
; FORMAT={-:-/ absolute / inch / decimal}
; #@! TF.CreationDate,2024-12-11T16:36:03+08:00
; #@! TF.GenerationSoftware,Kicad,Pcbnew,8.0.7-8.0.7-0~ubuntu22.04.1
; #@! TF.FileFunction,Plated,1,2,PTH
FMAT,2
INCH
; #@! TA.AperFunction,Plated,PTH,ComponentDrill
T1C0.0354
; #@! TA.AperFunction,Plated,PTH,ComponentDrill
T2C0.0394
; #@! TA.AperFunction,Plated,PTH,ComponentDrill
T3C0.0591
%
G90
G05
T1
X4.6106Y-3.1715
X4.6106Y-4.0715
X4.7106Y-3.1715
X4.7106Y-4.0715
X4.8106Y-3.1715
X4.8106Y-4.0715
X4.9106Y-3.1715
X4.9106Y-4.0715
X5.0106Y-3.1715
X5.0106Y-4.0715
X5.1106Y-3.1715
X5.1106Y-4.0715
X5.2106Y-3.1715
X5.2106Y-4.0715
X5.3106Y-3.1715
X5.3106Y-4.0715
T2
X4.035Y-2.6717
X4.035Y-2.7717
X4.035Y-2.8717
X4.035Y-2.9717
X4.035Y-3.0717
X4.035Y-3.1717
X4.035Y-3.2717
X4.035Y-3.3717
X4.7441Y-4.3504
X4.7441Y-4.4488
X4.7441Y-4.5472
X5.315Y-4.3504
X5.315Y-4.5472
X6.1217Y-2.8717
X6.1217Y-2.9717
X6.1217Y-3.0717
X6.1217Y-3.1717
T3
G00X5.0138Y-4.2283
M15
G01X5.065Y-4.2283
M16
G05
G00X5.0138Y-4.6693
M15
G01X5.065Y-4.6693
M16
G05
M30
