%TF.GenerationSoftware,KiCad,Pcbnew,8.0.7-8.0.7-0~ubuntu22.04.1*%
%TF.CreationDate,2024-12-11T16:36:03+08:00*%
%TF.ProjectId,SmartClock,536d6172-7443-46c6-9f63-6b2e6b696361,rev?*%
%TF.SameCoordinates,Original*%
%TF.FileFunction,Drillmap*%
%TF.FilePolarity,Positive*%
%FSLAX45Y45*%
G04 Gerber Fmt 4.5, Leading zero omitted, Abs format (unit mm)*
G04 Created by KiCad (PCBNEW 8.0.7-8.0.7-0~ubuntu22.04.1) date 2024-12-11 16:36:03*
%MOMM*%
%LPD*%
G01*
G04 APERTURE LIST*
%ADD10C,0.050000*%
%ADD11C,0.200000*%
%ADD12C,0.320000*%
G04 APERTURE END LIST*
D10*
X9500000Y-5300000D02*
X16450000Y-5300000D01*
X16450000Y-12400000D01*
X9500000Y-12400000D01*
X9500000Y-5300000D01*
D11*
D12*
X10139000Y-6090000D02*
X10459000Y-6410000D01*
X10459000Y-6090000D02*
X10139000Y-6410000D01*
X10139000Y-8940000D02*
X10459000Y-9260000D01*
X10459000Y-8940000D02*
X10139000Y-9260000D01*
X15339000Y-6090000D02*
X15659000Y-6410000D01*
X15659000Y-6090000D02*
X15339000Y-6410000D01*
X15339000Y-8940000D02*
X15659000Y-9260000D01*
X15659000Y-8940000D02*
X15339000Y-9260000D01*
D11*
X9758277Y-12713984D02*
X9758277Y-12513984D01*
X9758277Y-12513984D02*
X9805896Y-12513984D01*
X9805896Y-12513984D02*
X9834467Y-12523508D01*
X9834467Y-12523508D02*
X9853515Y-12542555D01*
X9853515Y-12542555D02*
X9863039Y-12561603D01*
X9863039Y-12561603D02*
X9872563Y-12599698D01*
X9872563Y-12599698D02*
X9872563Y-12628269D01*
X9872563Y-12628269D02*
X9863039Y-12666365D01*
X9863039Y-12666365D02*
X9853515Y-12685412D01*
X9853515Y-12685412D02*
X9834467Y-12704460D01*
X9834467Y-12704460D02*
X9805896Y-12713984D01*
X9805896Y-12713984D02*
X9758277Y-12713984D01*
X9958277Y-12713984D02*
X9958277Y-12580650D01*
X9958277Y-12618746D02*
X9967801Y-12599698D01*
X9967801Y-12599698D02*
X9977324Y-12590174D01*
X9977324Y-12590174D02*
X9996372Y-12580650D01*
X9996372Y-12580650D02*
X10015420Y-12580650D01*
X10082086Y-12713984D02*
X10082086Y-12580650D01*
X10082086Y-12513984D02*
X10072563Y-12523508D01*
X10072563Y-12523508D02*
X10082086Y-12533031D01*
X10082086Y-12533031D02*
X10091610Y-12523508D01*
X10091610Y-12523508D02*
X10082086Y-12513984D01*
X10082086Y-12513984D02*
X10082086Y-12533031D01*
X10205896Y-12713984D02*
X10186848Y-12704460D01*
X10186848Y-12704460D02*
X10177324Y-12685412D01*
X10177324Y-12685412D02*
X10177324Y-12513984D01*
X10310658Y-12713984D02*
X10291610Y-12704460D01*
X10291610Y-12704460D02*
X10282086Y-12685412D01*
X10282086Y-12685412D02*
X10282086Y-12513984D01*
X10539229Y-12713984D02*
X10539229Y-12513984D01*
X10539229Y-12513984D02*
X10605896Y-12656841D01*
X10605896Y-12656841D02*
X10672563Y-12513984D01*
X10672563Y-12513984D02*
X10672563Y-12713984D01*
X10853515Y-12713984D02*
X10853515Y-12609222D01*
X10853515Y-12609222D02*
X10843991Y-12590174D01*
X10843991Y-12590174D02*
X10824944Y-12580650D01*
X10824944Y-12580650D02*
X10786848Y-12580650D01*
X10786848Y-12580650D02*
X10767801Y-12590174D01*
X10853515Y-12704460D02*
X10834467Y-12713984D01*
X10834467Y-12713984D02*
X10786848Y-12713984D01*
X10786848Y-12713984D02*
X10767801Y-12704460D01*
X10767801Y-12704460D02*
X10758277Y-12685412D01*
X10758277Y-12685412D02*
X10758277Y-12666365D01*
X10758277Y-12666365D02*
X10767801Y-12647317D01*
X10767801Y-12647317D02*
X10786848Y-12637793D01*
X10786848Y-12637793D02*
X10834467Y-12637793D01*
X10834467Y-12637793D02*
X10853515Y-12628269D01*
X10948753Y-12580650D02*
X10948753Y-12780650D01*
X10948753Y-12590174D02*
X10967801Y-12580650D01*
X10967801Y-12580650D02*
X11005896Y-12580650D01*
X11005896Y-12580650D02*
X11024944Y-12590174D01*
X11024944Y-12590174D02*
X11034467Y-12599698D01*
X11034467Y-12599698D02*
X11043991Y-12618746D01*
X11043991Y-12618746D02*
X11043991Y-12675888D01*
X11043991Y-12675888D02*
X11034467Y-12694936D01*
X11034467Y-12694936D02*
X11024944Y-12704460D01*
X11024944Y-12704460D02*
X11005896Y-12713984D01*
X11005896Y-12713984D02*
X10967801Y-12713984D01*
X10967801Y-12713984D02*
X10948753Y-12704460D01*
X11129705Y-12694936D02*
X11139229Y-12704460D01*
X11139229Y-12704460D02*
X11129705Y-12713984D01*
X11129705Y-12713984D02*
X11120182Y-12704460D01*
X11120182Y-12704460D02*
X11129705Y-12694936D01*
X11129705Y-12694936D02*
X11129705Y-12713984D01*
X11129705Y-12590174D02*
X11139229Y-12599698D01*
X11139229Y-12599698D02*
X11129705Y-12609222D01*
X11129705Y-12609222D02*
X11120182Y-12599698D01*
X11120182Y-12599698D02*
X11129705Y-12590174D01*
X11129705Y-12590174D02*
X11129705Y-12609222D01*
X9297500Y-12942500D02*
X9497500Y-13142500D01*
X9497500Y-12942500D02*
X9297500Y-13142500D01*
X9739229Y-12933984D02*
X9863039Y-12933984D01*
X9863039Y-12933984D02*
X9796372Y-13010174D01*
X9796372Y-13010174D02*
X9824944Y-13010174D01*
X9824944Y-13010174D02*
X9843991Y-13019698D01*
X9843991Y-13019698D02*
X9853515Y-13029222D01*
X9853515Y-13029222D02*
X9863039Y-13048269D01*
X9863039Y-13048269D02*
X9863039Y-13095888D01*
X9863039Y-13095888D02*
X9853515Y-13114936D01*
X9853515Y-13114936D02*
X9843991Y-13124460D01*
X9843991Y-13124460D02*
X9824944Y-13133984D01*
X9824944Y-13133984D02*
X9767801Y-13133984D01*
X9767801Y-13133984D02*
X9748753Y-13124460D01*
X9748753Y-13124460D02*
X9739229Y-13114936D01*
X9948753Y-13114936D02*
X9958277Y-13124460D01*
X9958277Y-13124460D02*
X9948753Y-13133984D01*
X9948753Y-13133984D02*
X9939229Y-13124460D01*
X9939229Y-13124460D02*
X9948753Y-13114936D01*
X9948753Y-13114936D02*
X9948753Y-13133984D01*
X10034467Y-12953031D02*
X10043991Y-12943508D01*
X10043991Y-12943508D02*
X10063039Y-12933984D01*
X10063039Y-12933984D02*
X10110658Y-12933984D01*
X10110658Y-12933984D02*
X10129705Y-12943508D01*
X10129705Y-12943508D02*
X10139229Y-12953031D01*
X10139229Y-12953031D02*
X10148753Y-12972079D01*
X10148753Y-12972079D02*
X10148753Y-12991127D01*
X10148753Y-12991127D02*
X10139229Y-13019698D01*
X10139229Y-13019698D02*
X10024944Y-13133984D01*
X10024944Y-13133984D02*
X10148753Y-13133984D01*
X10272563Y-12933984D02*
X10291610Y-12933984D01*
X10291610Y-12933984D02*
X10310658Y-12943508D01*
X10310658Y-12943508D02*
X10320182Y-12953031D01*
X10320182Y-12953031D02*
X10329705Y-12972079D01*
X10329705Y-12972079D02*
X10339229Y-13010174D01*
X10339229Y-13010174D02*
X10339229Y-13057793D01*
X10339229Y-13057793D02*
X10329705Y-13095888D01*
X10329705Y-13095888D02*
X10320182Y-13114936D01*
X10320182Y-13114936D02*
X10310658Y-13124460D01*
X10310658Y-13124460D02*
X10291610Y-13133984D01*
X10291610Y-13133984D02*
X10272563Y-13133984D01*
X10272563Y-13133984D02*
X10253515Y-13124460D01*
X10253515Y-13124460D02*
X10243991Y-13114936D01*
X10243991Y-13114936D02*
X10234467Y-13095888D01*
X10234467Y-13095888D02*
X10224944Y-13057793D01*
X10224944Y-13057793D02*
X10224944Y-13010174D01*
X10224944Y-13010174D02*
X10234467Y-12972079D01*
X10234467Y-12972079D02*
X10243991Y-12953031D01*
X10243991Y-12953031D02*
X10253515Y-12943508D01*
X10253515Y-12943508D02*
X10272563Y-12933984D01*
X10463039Y-12933984D02*
X10482086Y-12933984D01*
X10482086Y-12933984D02*
X10501134Y-12943508D01*
X10501134Y-12943508D02*
X10510658Y-12953031D01*
X10510658Y-12953031D02*
X10520182Y-12972079D01*
X10520182Y-12972079D02*
X10529705Y-13010174D01*
X10529705Y-13010174D02*
X10529705Y-13057793D01*
X10529705Y-13057793D02*
X10520182Y-13095888D01*
X10520182Y-13095888D02*
X10510658Y-13114936D01*
X10510658Y-13114936D02*
X10501134Y-13124460D01*
X10501134Y-13124460D02*
X10482086Y-13133984D01*
X10482086Y-13133984D02*
X10463039Y-13133984D01*
X10463039Y-13133984D02*
X10443991Y-13124460D01*
X10443991Y-13124460D02*
X10434467Y-13114936D01*
X10434467Y-13114936D02*
X10424944Y-13095888D01*
X10424944Y-13095888D02*
X10415420Y-13057793D01*
X10415420Y-13057793D02*
X10415420Y-13010174D01*
X10415420Y-13010174D02*
X10424944Y-12972079D01*
X10424944Y-12972079D02*
X10434467Y-12953031D01*
X10434467Y-12953031D02*
X10443991Y-12943508D01*
X10443991Y-12943508D02*
X10463039Y-12933984D01*
X10615420Y-13133984D02*
X10615420Y-13000650D01*
X10615420Y-13019698D02*
X10624944Y-13010174D01*
X10624944Y-13010174D02*
X10643991Y-13000650D01*
X10643991Y-13000650D02*
X10672563Y-13000650D01*
X10672563Y-13000650D02*
X10691610Y-13010174D01*
X10691610Y-13010174D02*
X10701134Y-13029222D01*
X10701134Y-13029222D02*
X10701134Y-13133984D01*
X10701134Y-13029222D02*
X10710658Y-13010174D01*
X10710658Y-13010174D02*
X10729705Y-13000650D01*
X10729705Y-13000650D02*
X10758277Y-13000650D01*
X10758277Y-13000650D02*
X10777325Y-13010174D01*
X10777325Y-13010174D02*
X10786848Y-13029222D01*
X10786848Y-13029222D02*
X10786848Y-13133984D01*
X10882086Y-13133984D02*
X10882086Y-13000650D01*
X10882086Y-13019698D02*
X10891610Y-13010174D01*
X10891610Y-13010174D02*
X10910658Y-13000650D01*
X10910658Y-13000650D02*
X10939229Y-13000650D01*
X10939229Y-13000650D02*
X10958277Y-13010174D01*
X10958277Y-13010174D02*
X10967801Y-13029222D01*
X10967801Y-13029222D02*
X10967801Y-13133984D01*
X10967801Y-13029222D02*
X10977325Y-13010174D01*
X10977325Y-13010174D02*
X10996372Y-13000650D01*
X10996372Y-13000650D02*
X11024944Y-13000650D01*
X11024944Y-13000650D02*
X11043991Y-13010174D01*
X11043991Y-13010174D02*
X11053515Y-13029222D01*
X11053515Y-13029222D02*
X11053515Y-13133984D01*
X11443991Y-12924460D02*
X11272563Y-13181603D01*
X11701134Y-12933984D02*
X11720182Y-12933984D01*
X11720182Y-12933984D02*
X11739229Y-12943508D01*
X11739229Y-12943508D02*
X11748753Y-12953031D01*
X11748753Y-12953031D02*
X11758277Y-12972079D01*
X11758277Y-12972079D02*
X11767801Y-13010174D01*
X11767801Y-13010174D02*
X11767801Y-13057793D01*
X11767801Y-13057793D02*
X11758277Y-13095888D01*
X11758277Y-13095888D02*
X11748753Y-13114936D01*
X11748753Y-13114936D02*
X11739229Y-13124460D01*
X11739229Y-13124460D02*
X11720182Y-13133984D01*
X11720182Y-13133984D02*
X11701134Y-13133984D01*
X11701134Y-13133984D02*
X11682086Y-13124460D01*
X11682086Y-13124460D02*
X11672563Y-13114936D01*
X11672563Y-13114936D02*
X11663039Y-13095888D01*
X11663039Y-13095888D02*
X11653515Y-13057793D01*
X11653515Y-13057793D02*
X11653515Y-13010174D01*
X11653515Y-13010174D02*
X11663039Y-12972079D01*
X11663039Y-12972079D02*
X11672563Y-12953031D01*
X11672563Y-12953031D02*
X11682086Y-12943508D01*
X11682086Y-12943508D02*
X11701134Y-12933984D01*
X11853515Y-13114936D02*
X11863039Y-13124460D01*
X11863039Y-13124460D02*
X11853515Y-13133984D01*
X11853515Y-13133984D02*
X11843991Y-13124460D01*
X11843991Y-13124460D02*
X11853515Y-13114936D01*
X11853515Y-13114936D02*
X11853515Y-13133984D01*
X12053515Y-13133984D02*
X11939229Y-13133984D01*
X11996372Y-13133984D02*
X11996372Y-12933984D01*
X11996372Y-12933984D02*
X11977325Y-12962555D01*
X11977325Y-12962555D02*
X11958277Y-12981603D01*
X11958277Y-12981603D02*
X11939229Y-12991127D01*
X12129706Y-12953031D02*
X12139229Y-12943508D01*
X12139229Y-12943508D02*
X12158277Y-12933984D01*
X12158277Y-12933984D02*
X12205896Y-12933984D01*
X12205896Y-12933984D02*
X12224944Y-12943508D01*
X12224944Y-12943508D02*
X12234467Y-12953031D01*
X12234467Y-12953031D02*
X12243991Y-12972079D01*
X12243991Y-12972079D02*
X12243991Y-12991127D01*
X12243991Y-12991127D02*
X12234467Y-13019698D01*
X12234467Y-13019698D02*
X12120182Y-13133984D01*
X12120182Y-13133984D02*
X12243991Y-13133984D01*
X12415420Y-12933984D02*
X12377325Y-12933984D01*
X12377325Y-12933984D02*
X12358277Y-12943508D01*
X12358277Y-12943508D02*
X12348753Y-12953031D01*
X12348753Y-12953031D02*
X12329706Y-12981603D01*
X12329706Y-12981603D02*
X12320182Y-13019698D01*
X12320182Y-13019698D02*
X12320182Y-13095888D01*
X12320182Y-13095888D02*
X12329706Y-13114936D01*
X12329706Y-13114936D02*
X12339229Y-13124460D01*
X12339229Y-13124460D02*
X12358277Y-13133984D01*
X12358277Y-13133984D02*
X12396372Y-13133984D01*
X12396372Y-13133984D02*
X12415420Y-13124460D01*
X12415420Y-13124460D02*
X12424944Y-13114936D01*
X12424944Y-13114936D02*
X12434467Y-13095888D01*
X12434467Y-13095888D02*
X12434467Y-13048269D01*
X12434467Y-13048269D02*
X12424944Y-13029222D01*
X12424944Y-13029222D02*
X12415420Y-13019698D01*
X12415420Y-13019698D02*
X12396372Y-13010174D01*
X12396372Y-13010174D02*
X12358277Y-13010174D01*
X12358277Y-13010174D02*
X12339229Y-13019698D01*
X12339229Y-13019698D02*
X12329706Y-13029222D01*
X12329706Y-13029222D02*
X12320182Y-13048269D01*
X12558277Y-12933984D02*
X12577325Y-12933984D01*
X12577325Y-12933984D02*
X12596372Y-12943508D01*
X12596372Y-12943508D02*
X12605896Y-12953031D01*
X12605896Y-12953031D02*
X12615420Y-12972079D01*
X12615420Y-12972079D02*
X12624944Y-13010174D01*
X12624944Y-13010174D02*
X12624944Y-13057793D01*
X12624944Y-13057793D02*
X12615420Y-13095888D01*
X12615420Y-13095888D02*
X12605896Y-13114936D01*
X12605896Y-13114936D02*
X12596372Y-13124460D01*
X12596372Y-13124460D02*
X12577325Y-13133984D01*
X12577325Y-13133984D02*
X12558277Y-13133984D01*
X12558277Y-13133984D02*
X12539229Y-13124460D01*
X12539229Y-13124460D02*
X12529706Y-13114936D01*
X12529706Y-13114936D02*
X12520182Y-13095888D01*
X12520182Y-13095888D02*
X12510658Y-13057793D01*
X12510658Y-13057793D02*
X12510658Y-13010174D01*
X12510658Y-13010174D02*
X12520182Y-12972079D01*
X12520182Y-12972079D02*
X12529706Y-12953031D01*
X12529706Y-12953031D02*
X12539229Y-12943508D01*
X12539229Y-12943508D02*
X12558277Y-12933984D01*
X12701134Y-12933984D02*
X12701134Y-12972079D01*
X12777325Y-12933984D02*
X12777325Y-12972079D01*
X13072563Y-13210174D02*
X13063039Y-13200650D01*
X13063039Y-13200650D02*
X13043991Y-13172079D01*
X13043991Y-13172079D02*
X13034468Y-13153031D01*
X13034468Y-13153031D02*
X13024944Y-13124460D01*
X13024944Y-13124460D02*
X13015420Y-13076841D01*
X13015420Y-13076841D02*
X13015420Y-13038746D01*
X13015420Y-13038746D02*
X13024944Y-12991127D01*
X13024944Y-12991127D02*
X13034468Y-12962555D01*
X13034468Y-12962555D02*
X13043991Y-12943508D01*
X13043991Y-12943508D02*
X13063039Y-12914936D01*
X13063039Y-12914936D02*
X13072563Y-12905412D01*
X13234468Y-13000650D02*
X13234468Y-13133984D01*
X13186848Y-12924460D02*
X13139229Y-13067317D01*
X13139229Y-13067317D02*
X13263039Y-13067317D01*
X13491610Y-13133984D02*
X13491610Y-12933984D01*
X13577325Y-13133984D02*
X13577325Y-13029222D01*
X13577325Y-13029222D02*
X13567801Y-13010174D01*
X13567801Y-13010174D02*
X13548753Y-13000650D01*
X13548753Y-13000650D02*
X13520182Y-13000650D01*
X13520182Y-13000650D02*
X13501134Y-13010174D01*
X13501134Y-13010174D02*
X13491610Y-13019698D01*
X13701134Y-13133984D02*
X13682087Y-13124460D01*
X13682087Y-13124460D02*
X13672563Y-13114936D01*
X13672563Y-13114936D02*
X13663039Y-13095888D01*
X13663039Y-13095888D02*
X13663039Y-13038746D01*
X13663039Y-13038746D02*
X13672563Y-13019698D01*
X13672563Y-13019698D02*
X13682087Y-13010174D01*
X13682087Y-13010174D02*
X13701134Y-13000650D01*
X13701134Y-13000650D02*
X13729706Y-13000650D01*
X13729706Y-13000650D02*
X13748753Y-13010174D01*
X13748753Y-13010174D02*
X13758277Y-13019698D01*
X13758277Y-13019698D02*
X13767801Y-13038746D01*
X13767801Y-13038746D02*
X13767801Y-13095888D01*
X13767801Y-13095888D02*
X13758277Y-13114936D01*
X13758277Y-13114936D02*
X13748753Y-13124460D01*
X13748753Y-13124460D02*
X13729706Y-13133984D01*
X13729706Y-13133984D02*
X13701134Y-13133984D01*
X13882087Y-13133984D02*
X13863039Y-13124460D01*
X13863039Y-13124460D02*
X13853515Y-13105412D01*
X13853515Y-13105412D02*
X13853515Y-12933984D01*
X14034468Y-13124460D02*
X14015420Y-13133984D01*
X14015420Y-13133984D02*
X13977325Y-13133984D01*
X13977325Y-13133984D02*
X13958277Y-13124460D01*
X13958277Y-13124460D02*
X13948753Y-13105412D01*
X13948753Y-13105412D02*
X13948753Y-13029222D01*
X13948753Y-13029222D02*
X13958277Y-13010174D01*
X13958277Y-13010174D02*
X13977325Y-13000650D01*
X13977325Y-13000650D02*
X14015420Y-13000650D01*
X14015420Y-13000650D02*
X14034468Y-13010174D01*
X14034468Y-13010174D02*
X14043991Y-13029222D01*
X14043991Y-13029222D02*
X14043991Y-13048269D01*
X14043991Y-13048269D02*
X13948753Y-13067317D01*
X14120182Y-13124460D02*
X14139230Y-13133984D01*
X14139230Y-13133984D02*
X14177325Y-13133984D01*
X14177325Y-13133984D02*
X14196372Y-13124460D01*
X14196372Y-13124460D02*
X14205896Y-13105412D01*
X14205896Y-13105412D02*
X14205896Y-13095888D01*
X14205896Y-13095888D02*
X14196372Y-13076841D01*
X14196372Y-13076841D02*
X14177325Y-13067317D01*
X14177325Y-13067317D02*
X14148753Y-13067317D01*
X14148753Y-13067317D02*
X14129706Y-13057793D01*
X14129706Y-13057793D02*
X14120182Y-13038746D01*
X14120182Y-13038746D02*
X14120182Y-13029222D01*
X14120182Y-13029222D02*
X14129706Y-13010174D01*
X14129706Y-13010174D02*
X14148753Y-13000650D01*
X14148753Y-13000650D02*
X14177325Y-13000650D01*
X14177325Y-13000650D02*
X14196372Y-13010174D01*
X14272563Y-13210174D02*
X14282087Y-13200650D01*
X14282087Y-13200650D02*
X14301134Y-13172079D01*
X14301134Y-13172079D02*
X14310658Y-13153031D01*
X14310658Y-13153031D02*
X14320182Y-13124460D01*
X14320182Y-13124460D02*
X14329706Y-13076841D01*
X14329706Y-13076841D02*
X14329706Y-13038746D01*
X14329706Y-13038746D02*
X14320182Y-12991127D01*
X14320182Y-12991127D02*
X14310658Y-12962555D01*
X14310658Y-12962555D02*
X14301134Y-12943508D01*
X14301134Y-12943508D02*
X14282087Y-12914936D01*
X14282087Y-12914936D02*
X14272563Y-12905412D01*
X14634468Y-13210174D02*
X14624944Y-13200650D01*
X14624944Y-13200650D02*
X14605896Y-13172079D01*
X14605896Y-13172079D02*
X14596372Y-13153031D01*
X14596372Y-13153031D02*
X14586849Y-13124460D01*
X14586849Y-13124460D02*
X14577325Y-13076841D01*
X14577325Y-13076841D02*
X14577325Y-13038746D01*
X14577325Y-13038746D02*
X14586849Y-12991127D01*
X14586849Y-12991127D02*
X14596372Y-12962555D01*
X14596372Y-12962555D02*
X14605896Y-12943508D01*
X14605896Y-12943508D02*
X14624944Y-12914936D01*
X14624944Y-12914936D02*
X14634468Y-12905412D01*
X14710658Y-13000650D02*
X14710658Y-13133984D01*
X14710658Y-13019698D02*
X14720182Y-13010174D01*
X14720182Y-13010174D02*
X14739230Y-13000650D01*
X14739230Y-13000650D02*
X14767801Y-13000650D01*
X14767801Y-13000650D02*
X14786849Y-13010174D01*
X14786849Y-13010174D02*
X14796372Y-13029222D01*
X14796372Y-13029222D02*
X14796372Y-13133984D01*
X14920182Y-13133984D02*
X14901134Y-13124460D01*
X14901134Y-13124460D02*
X14891611Y-13114936D01*
X14891611Y-13114936D02*
X14882087Y-13095888D01*
X14882087Y-13095888D02*
X14882087Y-13038746D01*
X14882087Y-13038746D02*
X14891611Y-13019698D01*
X14891611Y-13019698D02*
X14901134Y-13010174D01*
X14901134Y-13010174D02*
X14920182Y-13000650D01*
X14920182Y-13000650D02*
X14948753Y-13000650D01*
X14948753Y-13000650D02*
X14967801Y-13010174D01*
X14967801Y-13010174D02*
X14977325Y-13019698D01*
X14977325Y-13019698D02*
X14986849Y-13038746D01*
X14986849Y-13038746D02*
X14986849Y-13095888D01*
X14986849Y-13095888D02*
X14977325Y-13114936D01*
X14977325Y-13114936D02*
X14967801Y-13124460D01*
X14967801Y-13124460D02*
X14948753Y-13133984D01*
X14948753Y-13133984D02*
X14920182Y-13133984D01*
X15043992Y-13000650D02*
X15120182Y-13000650D01*
X15072563Y-12933984D02*
X15072563Y-13105412D01*
X15072563Y-13105412D02*
X15082087Y-13124460D01*
X15082087Y-13124460D02*
X15101134Y-13133984D01*
X15101134Y-13133984D02*
X15120182Y-13133984D01*
X15339230Y-13000650D02*
X15339230Y-13200650D01*
X15339230Y-13010174D02*
X15358277Y-13000650D01*
X15358277Y-13000650D02*
X15396373Y-13000650D01*
X15396373Y-13000650D02*
X15415420Y-13010174D01*
X15415420Y-13010174D02*
X15424944Y-13019698D01*
X15424944Y-13019698D02*
X15434468Y-13038746D01*
X15434468Y-13038746D02*
X15434468Y-13095888D01*
X15434468Y-13095888D02*
X15424944Y-13114936D01*
X15424944Y-13114936D02*
X15415420Y-13124460D01*
X15415420Y-13124460D02*
X15396373Y-13133984D01*
X15396373Y-13133984D02*
X15358277Y-13133984D01*
X15358277Y-13133984D02*
X15339230Y-13124460D01*
X15548753Y-13133984D02*
X15529706Y-13124460D01*
X15529706Y-13124460D02*
X15520182Y-13105412D01*
X15520182Y-13105412D02*
X15520182Y-12933984D01*
X15710658Y-13133984D02*
X15710658Y-13029222D01*
X15710658Y-13029222D02*
X15701134Y-13010174D01*
X15701134Y-13010174D02*
X15682087Y-13000650D01*
X15682087Y-13000650D02*
X15643992Y-13000650D01*
X15643992Y-13000650D02*
X15624944Y-13010174D01*
X15710658Y-13124460D02*
X15691611Y-13133984D01*
X15691611Y-13133984D02*
X15643992Y-13133984D01*
X15643992Y-13133984D02*
X15624944Y-13124460D01*
X15624944Y-13124460D02*
X15615420Y-13105412D01*
X15615420Y-13105412D02*
X15615420Y-13086365D01*
X15615420Y-13086365D02*
X15624944Y-13067317D01*
X15624944Y-13067317D02*
X15643992Y-13057793D01*
X15643992Y-13057793D02*
X15691611Y-13057793D01*
X15691611Y-13057793D02*
X15710658Y-13048269D01*
X15777325Y-13000650D02*
X15853515Y-13000650D01*
X15805896Y-12933984D02*
X15805896Y-13105412D01*
X15805896Y-13105412D02*
X15815420Y-13124460D01*
X15815420Y-13124460D02*
X15834468Y-13133984D01*
X15834468Y-13133984D02*
X15853515Y-13133984D01*
X15996373Y-13124460D02*
X15977325Y-13133984D01*
X15977325Y-13133984D02*
X15939230Y-13133984D01*
X15939230Y-13133984D02*
X15920182Y-13124460D01*
X15920182Y-13124460D02*
X15910658Y-13105412D01*
X15910658Y-13105412D02*
X15910658Y-13029222D01*
X15910658Y-13029222D02*
X15920182Y-13010174D01*
X15920182Y-13010174D02*
X15939230Y-13000650D01*
X15939230Y-13000650D02*
X15977325Y-13000650D01*
X15977325Y-13000650D02*
X15996373Y-13010174D01*
X15996373Y-13010174D02*
X16005896Y-13029222D01*
X16005896Y-13029222D02*
X16005896Y-13048269D01*
X16005896Y-13048269D02*
X15910658Y-13067317D01*
X16177325Y-13133984D02*
X16177325Y-12933984D01*
X16177325Y-13124460D02*
X16158277Y-13133984D01*
X16158277Y-13133984D02*
X16120182Y-13133984D01*
X16120182Y-13133984D02*
X16101134Y-13124460D01*
X16101134Y-13124460D02*
X16091611Y-13114936D01*
X16091611Y-13114936D02*
X16082087Y-13095888D01*
X16082087Y-13095888D02*
X16082087Y-13038746D01*
X16082087Y-13038746D02*
X16091611Y-13019698D01*
X16091611Y-13019698D02*
X16101134Y-13010174D01*
X16101134Y-13010174D02*
X16120182Y-13000650D01*
X16120182Y-13000650D02*
X16158277Y-13000650D01*
X16158277Y-13000650D02*
X16177325Y-13010174D01*
X16253515Y-13210174D02*
X16263039Y-13200650D01*
X16263039Y-13200650D02*
X16282087Y-13172079D01*
X16282087Y-13172079D02*
X16291611Y-13153031D01*
X16291611Y-13153031D02*
X16301134Y-13124460D01*
X16301134Y-13124460D02*
X16310658Y-13076841D01*
X16310658Y-13076841D02*
X16310658Y-13038746D01*
X16310658Y-13038746D02*
X16301134Y-12991127D01*
X16301134Y-12991127D02*
X16291611Y-12962555D01*
X16291611Y-12962555D02*
X16282087Y-12943508D01*
X16282087Y-12943508D02*
X16263039Y-12914936D01*
X16263039Y-12914936D02*
X16253515Y-12905412D01*
M02*
