%TF.GenerationSoftware,KiCad,Pcbnew,8.0.7-8.0.7-0~ubuntu22.04.1*%
%TF.CreationDate,2024-12-11T16:36:01+08:00*%
%TF.ProjectId,SmartClock,536d6172-7443-46c6-9f63-6b2e6b696361,rev?*%
%TF.SameCoordinates,Original*%
%TF.FileFunction,Legend,Bot*%
%TF.FilePolarity,Positive*%
%FSLAX46Y46*%
G04 Gerber Fmt 4.6, Leading zero omitted, Abs format (unit mm)*
G04 Created by KiCad (PCBNEW 8.0.7-8.0.7-0~ubuntu22.04.1) date 2024-12-11 16:36:01*
%MOMM*%
%LPD*%
G01*
G04 APERTURE LIST*
%ADD10C,0.150000*%
%ADD11C,0.120000*%
G04 APERTURE END LIST*
D10*
X143564819Y-101793095D02*
X144374342Y-101793095D01*
X144374342Y-101793095D02*
X144469580Y-101840714D01*
X144469580Y-101840714D02*
X144517200Y-101888333D01*
X144517200Y-101888333D02*
X144564819Y-101983571D01*
X144564819Y-101983571D02*
X144564819Y-102174047D01*
X144564819Y-102174047D02*
X144517200Y-102269285D01*
X144517200Y-102269285D02*
X144469580Y-102316904D01*
X144469580Y-102316904D02*
X144374342Y-102364523D01*
X144374342Y-102364523D02*
X143564819Y-102364523D01*
X143660057Y-102793095D02*
X143612438Y-102840714D01*
X143612438Y-102840714D02*
X143564819Y-102935952D01*
X143564819Y-102935952D02*
X143564819Y-103174047D01*
X143564819Y-103174047D02*
X143612438Y-103269285D01*
X143612438Y-103269285D02*
X143660057Y-103316904D01*
X143660057Y-103316904D02*
X143755295Y-103364523D01*
X143755295Y-103364523D02*
X143850533Y-103364523D01*
X143850533Y-103364523D02*
X143993390Y-103316904D01*
X143993390Y-103316904D02*
X144564819Y-102745476D01*
X144564819Y-102745476D02*
X144564819Y-103364523D01*
%TO.C,U2*%
X117110000Y-78650000D02*
X116475000Y-78015000D01*
X117745000Y-78015000D01*
X117110000Y-78650000D01*
G36*
X117110000Y-78650000D02*
G01*
X116475000Y-78015000D01*
X117745000Y-78015000D01*
X117110000Y-78650000D01*
G37*
D11*
X110900000Y-104915000D02*
G75*
G02*
X108770000Y-102785000I0J2130000D01*
G01*
X108770000Y-81185000D02*
G75*
G02*
X110900000Y-79055000I2130002J-2D01*
G01*
X110900000Y-104915000D02*
X143230000Y-104915000D01*
X108770000Y-81185000D02*
X108770000Y-102795000D01*
X143230000Y-104915000D02*
X143230000Y-81595000D01*
X143230000Y-81595000D02*
X136330000Y-81595000D01*
X136330000Y-81595000D02*
X136330000Y-79055000D01*
X110900000Y-79055000D02*
X136330000Y-79055000D01*
%TD*%
M02*
