%TF.GenerationSoftware,KiCad,Pcbnew,8.0.7-8.0.7-0~ubuntu22.04.1*%
%TF.CreationDate,2024-12-14T21:10:45+08:00*%
%TF.ProjectId,SmartClock,536d6172-7443-46c6-9f63-6b2e6b696361,rev?*%
%TF.SameCoordinates,Original*%
%TF.FileFunction,Legend,Top*%
%TF.FilePolarity,Positive*%
%FSLAX46Y46*%
G04 Gerber Fmt 4.6, Leading zero omitted, Abs format (unit mm)*
G04 Created by KiCad (PCBNEW 8.0.7-8.0.7-0~ubuntu22.04.1) date 2024-12-14 21:10:45*
%MOMM*%
%LPD*%
G01*
G04 APERTURE LIST*
G04 Aperture macros list*
%AMRoundRect*
0 Rectangle with rounded corners*
0 $1 Rounding radius*
0 $2 $3 $4 $5 $6 $7 $8 $9 X,Y pos of 4 corners*
0 Add a 4 corners polygon primitive as box body*
4,1,4,$2,$3,$4,$5,$6,$7,$8,$9,$2,$3,0*
0 Add four circle primitives for the rounded corners*
1,1,$1+$1,$2,$3*
1,1,$1+$1,$4,$5*
1,1,$1+$1,$6,$7*
1,1,$1+$1,$8,$9*
0 Add four rect primitives between the rounded corners*
20,1,$1+$1,$2,$3,$4,$5,0*
20,1,$1+$1,$4,$5,$6,$7,0*
20,1,$1+$1,$6,$7,$8,$9,0*
20,1,$1+$1,$8,$9,$2,$3,0*%
G04 Aperture macros list end*
%ADD10C,0.150000*%
%ADD11C,0.120000*%
%ADD12C,0.100000*%
%ADD13RoundRect,0.090000X0.360000X-0.660000X0.360000X0.660000X-0.360000X0.660000X-0.360000X-0.660000X0*%
%ADD14C,3.200000*%
%ADD15R,1.700000X1.700000*%
%ADD16O,1.700000X1.700000*%
%ADD17R,2.000000X2.000000*%
%ADD18C,2.000000*%
%ADD19R,3.200000X2.000000*%
%ADD20RoundRect,0.135000X0.135000X0.185000X-0.135000X0.185000X-0.135000X-0.185000X0.135000X-0.185000X0*%
%ADD21RoundRect,0.135000X-0.135000X-0.185000X0.135000X-0.185000X0.135000X0.185000X-0.135000X0.185000X0*%
%ADD22O,1.600000X2.000000*%
G04 APERTURE END LIST*
D10*
X141507295Y-94931428D02*
X141507295Y-95388571D01*
X141507295Y-95159999D02*
X140707295Y-95159999D01*
X140707295Y-95159999D02*
X140821580Y-95236190D01*
X140821580Y-95236190D02*
X140897771Y-95312380D01*
X140897771Y-95312380D02*
X140935866Y-95388571D01*
X154747295Y-94931428D02*
X154747295Y-95388571D01*
X154747295Y-95159999D02*
X153947295Y-95159999D01*
X153947295Y-95159999D02*
X154061580Y-95236190D01*
X154061580Y-95236190D02*
X154137771Y-95312380D01*
X154137771Y-95312380D02*
X154175866Y-95388571D01*
X134887295Y-94931428D02*
X134887295Y-95388571D01*
X134887295Y-95159999D02*
X134087295Y-95159999D01*
X134087295Y-95159999D02*
X134201580Y-95236190D01*
X134201580Y-95236190D02*
X134277771Y-95312380D01*
X134277771Y-95312380D02*
X134315866Y-95388571D01*
X128267295Y-94931428D02*
X128267295Y-95388571D01*
X128267295Y-95159999D02*
X127467295Y-95159999D01*
X127467295Y-95159999D02*
X127581580Y-95236190D01*
X127581580Y-95236190D02*
X127657771Y-95312380D01*
X127657771Y-95312380D02*
X127695866Y-95388571D01*
X148127295Y-94931428D02*
X148127295Y-95388571D01*
X148127295Y-95159999D02*
X147327295Y-95159999D01*
X147327295Y-95159999D02*
X147441580Y-95236190D01*
X147441580Y-95236190D02*
X147517771Y-95312380D01*
X147517771Y-95312380D02*
X147555866Y-95388571D01*
D11*
%TO.C,D3*%
X139995000Y-94660000D02*
X139995000Y-87660000D01*
X139995000Y-94660000D02*
X145495000Y-94660000D01*
X143645000Y-88460000D02*
X141845000Y-88460000D01*
X143645000Y-93860000D02*
X141845000Y-93860000D01*
X145045000Y-87660000D02*
X139995000Y-87660000D01*
X145495000Y-88110000D02*
X145045000Y-87660000D01*
X145495000Y-94660000D02*
X145495000Y-88110000D01*
%TO.C,U1*%
X114920000Y-60030000D02*
X116250000Y-60030000D01*
X114920000Y-61360000D02*
X114920000Y-60030000D01*
X114920000Y-62630000D02*
X114920000Y-80470000D01*
X114920000Y-62630000D02*
X117580000Y-62630000D01*
X114920000Y-80470000D02*
X117580000Y-80470000D01*
X117580000Y-62630000D02*
X117580000Y-80470000D01*
X167920000Y-65110000D02*
X169250000Y-65110000D01*
X167920000Y-66440000D02*
X167920000Y-65110000D01*
X167920000Y-67710000D02*
X167920000Y-75390000D01*
X167920000Y-67710000D02*
X170580000Y-67710000D01*
X167920000Y-75390000D02*
X170580000Y-75390000D01*
X170580000Y-67710000D02*
X170580000Y-75390000D01*
D12*
X113750000Y-53000000D02*
X171750000Y-53000000D01*
X171750000Y-87500000D01*
X113750000Y-87500000D01*
X113750000Y-53000000D01*
D11*
%TO.C,D5*%
X153235000Y-94660000D02*
X153235000Y-87660000D01*
X153235000Y-94660000D02*
X158735000Y-94660000D01*
X156885000Y-88460000D02*
X155085000Y-88460000D01*
X156885000Y-93860000D02*
X155085000Y-93860000D01*
X158285000Y-87660000D02*
X153235000Y-87660000D01*
X158735000Y-88110000D02*
X158285000Y-87660000D01*
X158735000Y-94660000D02*
X158735000Y-88110000D01*
%TO.C,SW1*%
X134950000Y-106900000D02*
X135550000Y-106900000D01*
X135250000Y-107200000D02*
X134950000Y-106900000D01*
X135550000Y-106900000D02*
X135250000Y-107200000D01*
X136650000Y-105100000D02*
X136650000Y-116900000D01*
X140750000Y-105100000D02*
X136650000Y-105100000D01*
X140750000Y-116900000D02*
X136650000Y-116900000D01*
X142250000Y-111000000D02*
X143250000Y-111000000D01*
X142750000Y-110500000D02*
X142750000Y-111500000D01*
X144750000Y-105100000D02*
X148850000Y-105100000D01*
X148850000Y-105100000D02*
X148850000Y-107500000D01*
X148850000Y-109700000D02*
X148850000Y-112300000D01*
X148850000Y-114500000D02*
X148850000Y-116900000D01*
X148850000Y-116900000D02*
X144750000Y-116900000D01*
X145750000Y-111000000D02*
G75*
G02*
X139750000Y-111000000I-3000000J0D01*
G01*
X139750000Y-111000000D02*
G75*
G02*
X145750000Y-111000000I3000000J0D01*
G01*
%TO.C,D2*%
X133375000Y-94660000D02*
X133375000Y-87660000D01*
X133375000Y-94660000D02*
X138875000Y-94660000D01*
X137025000Y-88460000D02*
X135225000Y-88460000D01*
X137025000Y-93860000D02*
X135225000Y-93860000D01*
X138425000Y-87660000D02*
X133375000Y-87660000D01*
X138875000Y-88110000D02*
X138425000Y-87660000D01*
X138875000Y-94660000D02*
X138875000Y-88110000D01*
%TO.C,D1*%
X126755000Y-94660000D02*
X126755000Y-87660000D01*
X126755000Y-94660000D02*
X132255000Y-94660000D01*
X130405000Y-88460000D02*
X128605000Y-88460000D01*
X130405000Y-93860000D02*
X128605000Y-93860000D01*
X131805000Y-87660000D02*
X126755000Y-87660000D01*
X132255000Y-88110000D02*
X131805000Y-87660000D01*
X132255000Y-94660000D02*
X132255000Y-88110000D01*
%TO.C,D4*%
X146615000Y-94660000D02*
X146615000Y-87660000D01*
X146615000Y-94660000D02*
X152115000Y-94660000D01*
X150265000Y-88460000D02*
X148465000Y-88460000D01*
X150265000Y-93860000D02*
X148465000Y-93860000D01*
X151665000Y-87660000D02*
X146615000Y-87660000D01*
X152115000Y-88110000D02*
X151665000Y-87660000D01*
X152115000Y-94660000D02*
X152115000Y-88110000D01*
%TD*%
%LPC*%
D13*
%TO.C,D3*%
X141095000Y-93610000D03*
X144395000Y-93610000D03*
X144395000Y-88710000D03*
X141095000Y-88710000D03*
%TD*%
D14*
%TO.C,U1*%
X116750000Y-56000000D03*
X116750000Y-84500000D03*
X168750000Y-56000000D03*
X168750000Y-84500000D03*
D15*
X116250000Y-61360000D03*
D16*
X116250000Y-63900000D03*
X116250000Y-66440000D03*
X116250000Y-68980000D03*
X116250000Y-71520000D03*
X116250000Y-74060000D03*
X116250000Y-76600000D03*
X116250000Y-79140000D03*
D15*
X169250000Y-66440000D03*
D16*
X169250000Y-68980000D03*
X169250000Y-71520000D03*
X169250000Y-74060000D03*
%TD*%
D13*
%TO.C,D5*%
X154335000Y-93610000D03*
X157635000Y-93610000D03*
X157635000Y-88710000D03*
X154335000Y-88710000D03*
%TD*%
D17*
%TO.C,SW1*%
X135250000Y-108500000D03*
D18*
X135250000Y-113500000D03*
X135250000Y-111000000D03*
D19*
X142750000Y-105400000D03*
X142750000Y-116600000D03*
D18*
X149750000Y-113500000D03*
X149750000Y-108500000D03*
%TD*%
D13*
%TO.C,D2*%
X134475000Y-93610000D03*
X137775000Y-93610000D03*
X137775000Y-88710000D03*
X134475000Y-88710000D03*
%TD*%
D20*
%TO.C,R4*%
X154510000Y-113490000D03*
X153490000Y-113490000D03*
%TD*%
D21*
%TO.C,R2*%
X131830000Y-108500000D03*
X132850000Y-108500000D03*
%TD*%
D13*
%TO.C,D1*%
X127855000Y-93610000D03*
X131155000Y-93610000D03*
X131155000Y-88710000D03*
X127855000Y-88710000D03*
%TD*%
D21*
%TO.C,R3*%
X131880000Y-113950000D03*
X132900000Y-113950000D03*
%TD*%
D13*
%TO.C,D4*%
X147715000Y-93610000D03*
X151015000Y-93610000D03*
X151015000Y-88710000D03*
X147715000Y-88710000D03*
%TD*%
D21*
%TO.C,R1*%
X110240000Y-79000000D03*
X111260000Y-79000000D03*
%TD*%
D15*
%TO.C,J1*%
X188700000Y-117650000D03*
D16*
X188700000Y-120190000D03*
X188700000Y-122730000D03*
%TD*%
D17*
%TO.C,U2*%
X121280000Y-122850000D03*
D22*
X118740000Y-122850000D03*
X116200000Y-122850000D03*
X113660000Y-122850000D03*
X111120000Y-122850000D03*
X108580000Y-122850000D03*
X106040000Y-122850000D03*
X103500000Y-122850000D03*
X103500000Y-99990000D03*
X106040000Y-99990000D03*
X108580000Y-99990000D03*
X111120000Y-99990000D03*
X113660000Y-99990000D03*
X116200000Y-99990000D03*
X118740000Y-99990000D03*
X121280000Y-99990000D03*
%TD*%
%LPD*%
M02*
