%TF.GenerationSoftware,KiCad,Pcbnew,8.0.7-8.0.7-0~ubuntu22.04.1*%
%TF.CreationDate,2024-12-14T21:10:45+08:00*%
%TF.ProjectId,SmartClock,536d6172-7443-46c6-9f63-6b2e6b696361,rev?*%
%TF.SameCoordinates,Original*%
%TF.FileFunction,Copper,L2,Bot*%
%TF.FilePolarity,Positive*%
%FSLAX46Y46*%
G04 Gerber Fmt 4.6, Leading zero omitted, Abs format (unit mm)*
G04 Created by KiCad (PCBNEW 8.0.7-8.0.7-0~ubuntu22.04.1) date 2024-12-14 21:10:45*
%MOMM*%
%LPD*%
G01*
G04 APERTURE LIST*
%TA.AperFunction,ComponentPad*%
%ADD10R,1.700000X1.700000*%
%TD*%
%TA.AperFunction,ComponentPad*%
%ADD11O,1.700000X1.700000*%
%TD*%
%TA.AperFunction,ComponentPad*%
%ADD12R,2.000000X2.000000*%
%TD*%
%TA.AperFunction,ComponentPad*%
%ADD13C,2.000000*%
%TD*%
%TA.AperFunction,ComponentPad*%
%ADD14R,3.200000X2.000000*%
%TD*%
%TA.AperFunction,ComponentPad*%
%ADD15O,1.600000X2.000000*%
%TD*%
%TA.AperFunction,ViaPad*%
%ADD16C,0.600000*%
%TD*%
%TA.AperFunction,Conductor*%
%ADD17C,0.200000*%
%TD*%
G04 APERTURE END LIST*
D10*
%TO.P,U1,1,3V3*%
%TO.N,unconnected-(U1-3V3-Pad1)*%
X116250000Y-61360000D03*
D11*
%TO.P,U1,2,GND*%
%TO.N,GND*%
X116250000Y-63900000D03*
%TO.P,U1,3,LCD_CS*%
%TO.N,TFT_CS*%
X116250000Y-66440000D03*
%TO.P,U1,4,EN*%
%TO.N,TFT_EN*%
X116250000Y-68980000D03*
%TO.P,U1,5,D/C*%
%TO.N,TFT_DC*%
X116250000Y-71520000D03*
%TO.P,U1,6,LCD_MOSI*%
%TO.N,MOSI*%
X116250000Y-74060000D03*
%TO.P,U1,7,LCD_SCK*%
%TO.N,SCK*%
X116250000Y-76600000D03*
%TO.P,U1,8,LED*%
%TO.N,Net-(U1-LED)*%
X116250000Y-79140000D03*
D10*
%TO.P,U1,9,SD_CS*%
%TO.N,SD_CS*%
X169250000Y-66440000D03*
D11*
%TO.P,U1,10,SD_MOSI*%
%TO.N,MOSI*%
X169250000Y-68980000D03*
%TO.P,U1,11,SD_MISO*%
%TO.N,MISO*%
X169250000Y-71520000D03*
%TO.P,U1,12,SD_SCK*%
%TO.N,SCK*%
X169250000Y-74060000D03*
%TD*%
D12*
%TO.P,SW1,A,A*%
%TO.N,EC11_A*%
X135250000Y-108500000D03*
D13*
%TO.P,SW1,B,B*%
%TO.N,EC11_B*%
X135250000Y-113500000D03*
%TO.P,SW1,C,C*%
%TO.N,GND*%
X135250000Y-111000000D03*
D14*
%TO.P,SW1,MP*%
%TO.N,N/C*%
X142750000Y-105400000D03*
X142750000Y-116600000D03*
D13*
%TO.P,SW1,S1,S1*%
%TO.N,EC11_S*%
X149750000Y-113500000D03*
%TO.P,SW1,S2,S2*%
%TO.N,GND*%
X149750000Y-108500000D03*
%TD*%
D10*
%TO.P,J1,1,Pin_1*%
%TO.N,GND*%
X188700000Y-117650000D03*
D11*
%TO.P,J1,2,Pin_2*%
%TO.N,+5V*%
X188700000Y-120190000D03*
%TO.P,J1,3,Pin_3*%
%TO.N,Net-(D5-DOUT)*%
X188700000Y-122730000D03*
%TD*%
D12*
%TO.P,U2,1,~{RST}*%
%TO.N,unconnected-(U2-~{RST}-Pad1)*%
X121280000Y-122850000D03*
D15*
%TO.P,U2,2,IO3*%
%TO.N,TFT_DC*%
X118740000Y-122850000D03*
%TO.P,U2,3,MISO/IO2*%
%TO.N,MISO*%
X116200000Y-122850000D03*
%TO.P,U2,4,IO1*%
%TO.N,SD_CS*%
X113660000Y-122850000D03*
%TO.P,U2,5,IO0*%
%TO.N,BackLight*%
X111120000Y-122850000D03*
%TO.P,U2,6,IO4*%
%TO.N,EC11_A*%
X108580000Y-122850000D03*
%TO.P,U2,7,IO5*%
%TO.N,EC11_B*%
X106040000Y-122850000D03*
%TO.P,U2,8,3V3*%
%TO.N,+3V3*%
X103500000Y-122850000D03*
%TO.P,U2,9,5V*%
%TO.N,+5V*%
X103500000Y-99990000D03*
%TO.P,U2,10,GND*%
%TO.N,GND*%
X106040000Y-99990000D03*
%TO.P,U2,11,SCK/IO6*%
%TO.N,SCK*%
X108580000Y-99990000D03*
%TO.P,U2,12,MOSI/IO7*%
%TO.N,WS2812B*%
X111120000Y-99990000D03*
%TO.P,U2,13,IO8*%
%TO.N,TFT_EN*%
X113660000Y-99990000D03*
%TO.P,U2,14,CS0/IO10*%
%TO.N,TFT_CS*%
X116200000Y-99990000D03*
%TO.P,U2,15,RX*%
%TO.N,MOSI*%
X118740000Y-99990000D03*
%TO.P,U2,16,TX*%
%TO.N,EC11_S*%
X121280000Y-99990000D03*
%TD*%
D16*
%TO.N,Net-(D5-DOUT)*%
X183125700Y-96218700D03*
%TO.N,WS2812B*%
X112221700Y-88710000D03*
%TO.N,+3V3*%
X109392700Y-95867300D03*
X130134200Y-95497100D03*
X130134200Y-108168700D03*
%TO.N,+5V*%
X185723500Y-99206200D03*
%TO.N,TFT_DC*%
X118191800Y-71434100D03*
%TO.N,SCK*%
X114776300Y-96218700D03*
%TO.N,SD_CS*%
X114958400Y-74689700D03*
%TO.N,EC11_B*%
X136635300Y-96268900D03*
X106040000Y-102193700D03*
%TO.N,EC11_S*%
X147030600Y-98472200D03*
%TO.N,EC11_A*%
X107478300Y-102990600D03*
X135250000Y-97865200D03*
%TO.N,GND*%
X106040000Y-90243700D03*
X155985000Y-87631500D03*
%TO.N,BackLight*%
X107454100Y-78293700D03*
%TD*%
D17*
%TO.N,Net-(D5-DOUT)*%
X188431500Y-121578300D02*
X188700000Y-121578300D01*
X183125700Y-116272500D02*
X188431500Y-121578300D01*
X183125700Y-96218700D02*
X183125700Y-116272500D01*
X188700000Y-122730000D02*
X188700000Y-121578300D01*
%TO.N,WS2812B*%
X111120000Y-99990000D02*
X112221700Y-99990000D01*
X112221700Y-99990000D02*
X112221700Y-88710000D01*
%TO.N,+3V3*%
X130134200Y-108168700D02*
X130134200Y-95497100D01*
X107310000Y-97950000D02*
X109392700Y-95867300D01*
X107310000Y-100493100D02*
X107310000Y-97950000D01*
X106349700Y-101453400D02*
X107310000Y-100493100D01*
X105913000Y-101453400D02*
X106349700Y-101453400D01*
X103500000Y-103866400D02*
X105913000Y-101453400D01*
X103500000Y-122850000D02*
X103500000Y-103866400D01*
%TO.N,+5V*%
X188700000Y-120190000D02*
X188700000Y-119038300D01*
X185723500Y-116853600D02*
X185723500Y-99206200D01*
X187908200Y-119038300D02*
X185723500Y-116853600D01*
X188700000Y-119038300D02*
X187908200Y-119038300D01*
%TO.N,TFT_DC*%
X119841700Y-73084000D02*
X118191800Y-71434100D01*
X119841700Y-122850000D02*
X119841700Y-73084000D01*
X118740000Y-122850000D02*
X119841700Y-122850000D01*
%TO.N,TFT_EN*%
X116250000Y-68980000D02*
X116250000Y-70131700D01*
X113356600Y-98384900D02*
X113660000Y-98688300D01*
X113356600Y-72737200D02*
X113356600Y-98384900D01*
X115962100Y-70131700D02*
X113356600Y-72737200D01*
X116250000Y-70131700D02*
X115962100Y-70131700D01*
X113660000Y-99990000D02*
X113660000Y-98688300D01*
%TO.N,SCK*%
X116250000Y-76600000D02*
X116250000Y-77751700D01*
X115949600Y-77751700D02*
X116250000Y-77751700D01*
X114562300Y-79139000D02*
X115949600Y-77751700D01*
X114562300Y-96004700D02*
X114562300Y-79139000D01*
X114776300Y-96218700D02*
X114562300Y-96004700D01*
%TO.N,SD_CS*%
X114160000Y-75488100D02*
X114958400Y-74689700D01*
X114160000Y-96500600D02*
X114160000Y-75488100D01*
X116096700Y-98437300D02*
X114160000Y-96500600D01*
X116431200Y-98437300D02*
X116096700Y-98437300D01*
X117315700Y-99321800D02*
X116431200Y-98437300D01*
X117315700Y-119194300D02*
X117315700Y-99321800D01*
X114761700Y-121748300D02*
X117315700Y-119194300D01*
X114761700Y-122850000D02*
X114761700Y-121748300D01*
X113660000Y-122850000D02*
X114761700Y-122850000D01*
%TO.N,MOSI*%
X118740000Y-99990000D02*
X118740000Y-98688300D01*
X116250000Y-74060000D02*
X116250000Y-75211700D01*
X118912600Y-98515700D02*
X118740000Y-98688300D01*
X118912600Y-77605800D02*
X118912600Y-98515700D01*
X116518500Y-75211700D02*
X118912600Y-77605800D01*
X116250000Y-75211700D02*
X116518500Y-75211700D01*
%TO.N,TFT_CS*%
X116200000Y-99990000D02*
X115098300Y-99990000D01*
X116250000Y-66440000D02*
X116250000Y-67591700D01*
X115098300Y-99456300D02*
X115098300Y-99990000D01*
X113758300Y-98116300D02*
X115098300Y-99456300D01*
X113758300Y-74871400D02*
X113758300Y-98116300D01*
X115839700Y-72790000D02*
X113758300Y-74871400D01*
X116669700Y-72790000D02*
X115839700Y-72790000D01*
X117457900Y-72001800D02*
X116669700Y-72790000D01*
X117457900Y-68531100D02*
X117457900Y-72001800D01*
X116518500Y-67591700D02*
X117457900Y-68531100D01*
X116250000Y-67591700D02*
X116518500Y-67591700D01*
%TO.N,EC11_B*%
X106040000Y-122850000D02*
X106040000Y-102193700D01*
X136635300Y-112114700D02*
X136635300Y-96268900D01*
X135250000Y-113500000D02*
X136635300Y-112114700D01*
%TO.N,EC11_S*%
X147030600Y-110780600D02*
X147030600Y-98472200D01*
X149750000Y-113500000D02*
X147030600Y-110780600D01*
%TO.N,EC11_A*%
X108580000Y-122850000D02*
X107478300Y-122850000D01*
X135250000Y-108500000D02*
X135250000Y-97865200D01*
X107478300Y-122850000D02*
X107478300Y-102990600D01*
%TO.N,GND*%
X116250000Y-63900000D02*
X116250000Y-65051700D01*
X106040000Y-99990000D02*
X106040000Y-90243700D01*
X115981500Y-65051700D02*
X116250000Y-65051700D01*
X106040000Y-74993200D02*
X115981500Y-65051700D01*
X106040000Y-90243700D02*
X106040000Y-74993200D01*
X149750000Y-93866500D02*
X155985000Y-87631500D01*
X149750000Y-108500000D02*
X149750000Y-93866500D01*
%TO.N,BackLight*%
X111120000Y-122850000D02*
X110018300Y-122850000D01*
X110018300Y-80857900D02*
X107454100Y-78293700D01*
X110018300Y-122850000D02*
X110018300Y-80857900D01*
%TD*%
M02*
