M48
; DRILL file {KiCad 8.0.7-8.0.7-0~ubuntu22.04.1} date 2024-12-14T21:10:45+0800
; FORMAT={-:-/ absolute / inch / decimal}
; #@! TF.CreationDate,2024-12-14T21:10:45+08:00
; #@! TF.GenerationSoftware,Kicad,Pcbnew,8.0.7-8.0.7-0~ubuntu22.04.1
; #@! TF.FileFunction,Plated,1,2,PTH
FMAT,2
INCH
; #@! TA.AperFunction,Plated,PTH,ViaDrill
T1C0.0118
; #@! TA.AperFunction,Plated,PTH,ComponentDrill
T2C0.0354
; #@! TA.AperFunction,Plated,PTH,ComponentDrill
T3C0.0394
; #@! TA.AperFunction,Plated,PTH,ComponentDrill
T4C0.0591
%
G90
G05
T1
X4.1748Y-3.5529
X4.1748Y-4.0234
X4.2305Y-3.0824
X4.2314Y-4.0547
X4.3068Y-3.7743
X4.4182Y-3.4925
X4.5188Y-3.7881
X4.5259Y-2.9405
X4.6532Y-2.8124
X5.1234Y-3.7597
X5.1234Y-4.2586
X5.3248Y-3.853
X5.3793Y-3.7901
X5.7886Y-3.8769
X6.1411Y-3.4501
X7.2097Y-3.7881
X7.3119Y-3.9058
T2
X4.0748Y-3.9366
X4.0748Y-4.8366
X4.1748Y-3.9366
X4.1748Y-4.8366
X4.2748Y-3.9366
X4.2748Y-4.8366
X4.3748Y-3.9366
X4.3748Y-4.8366
X4.4748Y-3.9366
X4.4748Y-4.8366
X4.5748Y-3.9366
X4.5748Y-4.8366
X4.6748Y-3.9366
X4.6748Y-4.8366
X4.7748Y-3.9366
X4.7748Y-4.8366
T3
X4.5768Y-2.4157
X4.5768Y-2.5157
X4.5768Y-2.6157
X4.5768Y-2.7157
X4.5768Y-2.8157
X4.5768Y-2.9157
X4.5768Y-3.0157
X4.5768Y-3.1157
X5.3248Y-4.2717
X5.3248Y-4.3701
X5.3248Y-4.4685
X5.8957Y-4.2717
X5.8957Y-4.4685
X6.6634Y-2.6157
X6.6634Y-2.7157
X6.6634Y-2.8157
X6.6634Y-2.9157
X7.4291Y-4.6319
X7.4291Y-4.7319
X7.4291Y-4.8319
T4
G00X5.5945Y-4.1496
M15
G01X5.6457Y-4.1496
M16
G05
G00X5.5945Y-4.5906
M15
G01X5.6457Y-4.5906
M16
G05
M30
