%TF.GenerationSoftware,KiCad,Pcbnew,8.99.0-3334-g98ae574c78*%
%TF.CreationDate,2024-12-20T16:25:24-06:00*%
%TF.ProjectId,CyberStation,43796265-7253-4746-9174-696f6e2e6b69,rev?*%
%TF.SameCoordinates,Original*%
%TF.FileFunction,Plated,1,2,PTH,Drill*%
%TF.FilePolarity,Positive*%
%FSLAX46Y46*%
G04 Gerber Fmt 4.6, Leading zero omitted, Abs format (unit mm)*
G04 Created by KiCad (PCBNEW 8.99.0-3334-g98ae574c78) date 2024-12-20 16:25:24*
%MOMM*%
%LPD*%
G01*
G04 APERTURE LIST*
%TA.AperFunction,ViaDrill*%
%ADD10C,0.300000*%
%TD*%
%TA.AperFunction,ComponentDrill*%
%ADD11C,0.800000*%
%TD*%
%TA.AperFunction,ComponentDrill*%
%ADD12C,0.900000*%
%TD*%
%TA.AperFunction,ComponentDrill*%
%ADD13C,1.000000*%
%TD*%
%TA.AperFunction,ComponentDrill*%
%ADD14C,1.200000*%
%TD*%
G04 APERTURE END LIST*
D10*
X161600000Y-87600000D03*
X162400000Y-70000000D03*
D11*
%TO.C,R5*%
X110500000Y-99600000D03*
X123200000Y-99600000D03*
%TO.C,R4*%
X127200000Y-99600000D03*
X139900000Y-99600000D03*
%TO.C,R6*%
X150800000Y-101000000D03*
%TO.C,J2*%
X151400000Y-72000000D03*
X153940000Y-72000000D03*
X156480000Y-72000000D03*
X159020000Y-72000000D03*
%TO.C,R6*%
X163500000Y-101000000D03*
D12*
%TO.C,U3*%
X116100000Y-71740000D03*
X116100000Y-94600000D03*
X118640000Y-71740000D03*
X118640000Y-94600000D03*
X121180000Y-71740000D03*
X121180000Y-94600000D03*
X123720000Y-71740000D03*
X123720000Y-94600000D03*
X126260000Y-71740000D03*
X126260000Y-94600000D03*
X128800000Y-71740000D03*
X128800000Y-94600000D03*
X131340000Y-71740000D03*
X131340000Y-94600000D03*
X133880000Y-71740000D03*
X133880000Y-94600000D03*
D13*
%TO.C,SW1*%
X112450000Y-77150000D03*
X112450000Y-83650000D03*
X116950000Y-77150000D03*
X116950000Y-83650000D03*
%TO.C,SW3*%
X120150000Y-77200000D03*
X120150000Y-83700000D03*
X124650000Y-77200000D03*
X124650000Y-83700000D03*
%TO.C,SW2*%
X127950000Y-77150000D03*
X127950000Y-83650000D03*
X132450000Y-77150000D03*
X132450000Y-83650000D03*
%TO.C,U2*%
X145185000Y-77635000D03*
X145185000Y-80175000D03*
X145185000Y-82715000D03*
X145185000Y-85255000D03*
X145185000Y-87795000D03*
X145185000Y-90335000D03*
X145185000Y-92875000D03*
X145185000Y-95415000D03*
X198185000Y-82715000D03*
X198185000Y-85255000D03*
X198185000Y-87795000D03*
X198185000Y-90335000D03*
D14*
%TO.C,R1*%
X149800000Y-76440000D03*
X149800000Y-96760000D03*
%TO.C,R2*%
X154400000Y-76440000D03*
X154400000Y-96760000D03*
%TO.C,R3*%
X159000000Y-76365000D03*
X159000000Y-96685000D03*
M02*
